<svg xmlns="http://www.w3.org/2000/svg" xmlns:xlink="http://www.w3.org/1999/xlink" width="360" height="392" viewBox="0 0 360 392">
  <defs>
    <clipPath id="clip-path">
      <rect id="Surface" width="360" height="48" transform="translate(584 697)" fill="#fff"/>
    </clipPath>
    <clipPath id="clip-path-2">
      <rect width="24" height="24" fill="none"/>
    </clipPath>
    <clipPath id="clip-Accounts">
      <rect width="360" height="392"/>
    </clipPath>
  </defs>
  <g id="Accounts" clip-path="url(#clip-Accounts)">
    <rect width="360" height="392" fill="#33333d"/>
    <g id="System_Bar_Base" data-name="System Bar / Base">
      <rect id="Rechteck_373" data-name="Rechteck 373" width="360" height="24" fill="#27272f"/>
      <path id="Icons" d="M23-10a5,5,0,0,1,5,5,5,5,0,0,1-5,5,5,5,0,0,1-5-5A5,5,0,0,1,23-10ZM40,0,34-10H46ZM0-10H10V0H0Z" transform="translate(307 17)" fill="#a8a8a8" fill-rule="evenodd"/>
    </g>
    <g id="Tab_Scrollable_Tabs_Text_Labels_Only_Flat" data-name="Tab / Scrollable Tabs / Text Labels Only / Flat" transform="translate(0 24)">
      <rect id="Surface-2" data-name="Surface" width="360" height="48" fill="none"/>
      <g id="Gruppe_maskieren_15" data-name="Gruppe maskieren 15" transform="translate(-584 -697)" clip-path="url(#clip-path)">
        <rect id="Divider" width="360" height="1" transform="translate(584 744)" opacity="0.1"/>
        <g id="Tab_Elements_Text_Tab_Active_Enabled" data-name="Tab / Elements / Text Tab / Active / Enabled" transform="translate(634 697)">
          <rect id="Box" width="120" height="48" fill="none"/>
          <rect id="Selected" width="120" height="2" transform="translate(0 46)" fill="none"/>
          <path id="Pfad_2114" data-name="Pfad 2114" d="M-30.168-2.6h-3.363L-34.3,0h-1.285l3.206-9.953h1.073L-28.1,0h-1.285ZM-33.2-3.678h2.714L-31.85-8.2Zm13.873.52a4.913,4.913,0,0,1-.256,1.381A2.945,2.945,0,0,1-20.2-.742a2.585,2.585,0,0,1-.981.653,3.755,3.755,0,0,1-1.357.226,3.043,3.043,0,0,1-1.354-.294A2.89,2.89,0,0,1-24.915-1a3.973,3.973,0,0,1-.653-1.319A6.1,6.1,0,0,1-25.8-4.054V-5.893a6.113,6.113,0,0,1,.229-1.733A3.858,3.858,0,0,1-24.9-8.948a2.95,2.95,0,0,1,1.063-.844,3.287,3.287,0,0,1,1.422-.3,3.489,3.489,0,0,1,1.282.219,2.515,2.515,0,0,1,.947.643,2.986,2.986,0,0,1,.608,1.046,4.934,4.934,0,0,1,.253,1.429h-1.265a5.252,5.252,0,0,0-.157-1.012,1.948,1.948,0,0,0-.335-.7,1.317,1.317,0,0,0-.547-.41,2.086,2.086,0,0,0-.786-.133,1.9,1.9,0,0,0-.943.222,1.851,1.851,0,0,0-.656.625,2.973,2.973,0,0,0-.386.978,5.956,5.956,0,0,0-.126,1.278v1.853a6.668,6.668,0,0,0,.106,1.224,3.256,3.256,0,0,0,.342.991,1.819,1.819,0,0,0,.619.667,1.7,1.7,0,0,0,.93.243,2.576,2.576,0,0,0,.865-.126,1.292,1.292,0,0,0,.574-.4,1.847,1.847,0,0,0,.338-.69,5.526,5.526,0,0,0,.164-1.015Zm9.184,0A4.913,4.913,0,0,1-10.4-1.777a2.945,2.945,0,0,1-.612,1.036A2.585,2.585,0,0,1-12-.089a3.755,3.755,0,0,1-1.357.226,3.043,3.043,0,0,1-1.354-.294A2.89,2.89,0,0,1-15.731-1a3.973,3.973,0,0,1-.653-1.319,6.1,6.1,0,0,1-.229-1.736V-5.893a6.113,6.113,0,0,1,.229-1.733,3.858,3.858,0,0,1,.663-1.323,2.95,2.95,0,0,1,1.063-.844,3.287,3.287,0,0,1,1.422-.3,3.489,3.489,0,0,1,1.282.219,2.515,2.515,0,0,1,.947.643A2.986,2.986,0,0,1-10.4-8.183a4.934,4.934,0,0,1,.253,1.429h-1.265a5.252,5.252,0,0,0-.157-1.012,1.948,1.948,0,0,0-.335-.7,1.317,1.317,0,0,0-.547-.41,2.086,2.086,0,0,0-.786-.133,1.9,1.9,0,0,0-.943.222,1.851,1.851,0,0,0-.656.625,2.973,2.973,0,0,0-.386.978,5.956,5.956,0,0,0-.126,1.278v1.853a6.669,6.669,0,0,0,.106,1.224,3.256,3.256,0,0,0,.342.991,1.819,1.819,0,0,0,.619.667,1.7,1.7,0,0,0,.93.243,2.576,2.576,0,0,0,.865-.126,1.292,1.292,0,0,0,.574-.4,1.846,1.846,0,0,0,.338-.69,5.526,5.526,0,0,0,.164-1.015ZM-.73-4.1A6.614,6.614,0,0,1-.962-2.249,3.737,3.737,0,0,1-1.625-.926a2.724,2.724,0,0,1-1.049.8A3.482,3.482,0,0,1-4.066.137,3.4,3.4,0,0,1-5.433-.13a2.845,2.845,0,0,1-1.06-.8,3.729,3.729,0,0,1-.687-1.323A6.351,6.351,0,0,1-7.422-4.1V-5.831A6.36,6.36,0,0,1-7.179-7.68,3.868,3.868,0,0,1-6.5-9.013,2.791,2.791,0,0,1-5.446-9.82a3.366,3.366,0,0,1,1.367-.27,3.443,3.443,0,0,1,1.391.27,2.784,2.784,0,0,1,1.056.807A3.74,3.74,0,0,1-.962-7.68,6.623,6.623,0,0,1-.73-5.831ZM-1.981-5.845a6.342,6.342,0,0,0-.137-1.412,2.757,2.757,0,0,0-.4-.971,1.616,1.616,0,0,0-.656-.557,2.154,2.154,0,0,0-.9-.178,2.062,2.062,0,0,0-.872.178,1.671,1.671,0,0,0-.66.557,2.806,2.806,0,0,0-.42.971,5.916,5.916,0,0,0-.147,1.412V-4.1a5.82,5.82,0,0,0,.15,1.418,2.851,2.851,0,0,0,.424.971,1.664,1.664,0,0,0,.663.557,2.085,2.085,0,0,0,.875.178,2.154,2.154,0,0,0,.9-.178,1.593,1.593,0,0,0,.653-.557,2.755,2.755,0,0,0,.4-.971A6.537,6.537,0,0,0-1.981-4.1ZM8.386-9.953v7.014a3.584,3.584,0,0,1-.253,1.425,2.62,2.62,0,0,1-.677.954,2.589,2.589,0,0,1-.978.533A4.069,4.069,0,0,1,5.317.137a4.229,4.229,0,0,1-1.2-.164A2.465,2.465,0,0,1,3.15-.561,2.533,2.533,0,0,1,2.5-1.514a3.815,3.815,0,0,1-.236-1.425V-9.953H3.512v7.014a3.074,3.074,0,0,0,.13.967,1.54,1.54,0,0,0,.366.619,1.313,1.313,0,0,0,.567.328,2.672,2.672,0,0,0,.742.1,2.709,2.709,0,0,0,.745-.1,1.311,1.311,0,0,0,.571-.328A1.54,1.54,0,0,0,7-1.972a3.074,3.074,0,0,0,.13-.967V-9.953ZM18.062,0H16.8L12.819-7.67V0H11.561V-9.953h1.258l4,7.7v-7.7h1.244ZM27.1-8.873H24.477V0H23.226V-8.873H20.615v-1.08H27.1Zm6.955,6.357a2.18,2.18,0,0,0-.079-.615,1.194,1.194,0,0,0-.291-.489,2.28,2.28,0,0,0-.574-.417,6.969,6.969,0,0,0-.937-.4,7.413,7.413,0,0,1-1.114-.482,3.648,3.648,0,0,1-.851-.622,2.517,2.517,0,0,1-.543-.8,2.622,2.622,0,0,1-.191-1.032,2.83,2.83,0,0,1,.2-1.077,2.528,2.528,0,0,1,.574-.861,2.619,2.619,0,0,1,.9-.571,3.243,3.243,0,0,1,1.179-.205,3.071,3.071,0,0,1,1.282.253,2.827,2.827,0,0,1,.937.67,2.781,2.781,0,0,1,.571.964,3.39,3.39,0,0,1,.191,1.128H34.051a2.868,2.868,0,0,0-.1-.772,1.669,1.669,0,0,0-.311-.615,1.422,1.422,0,0,0-.537-.4,1.91,1.91,0,0,0-.776-.144,1.892,1.892,0,0,0-.718.123,1.34,1.34,0,0,0-.5.338,1.352,1.352,0,0,0-.287.509,2.136,2.136,0,0,0-.092.643,1.386,1.386,0,0,0,.451,1.053,4,4,0,0,0,1.395.759,7.158,7.158,0,0,1,1.244.53,3.285,3.285,0,0,1,.851.66,2.344,2.344,0,0,1,.485.827,3.256,3.256,0,0,1,.154,1.039,2.836,2.836,0,0,1-.205,1.1,2.357,2.357,0,0,1-.584.841,2.6,2.6,0,0,1-.919.537A3.687,3.687,0,0,1,32.39.137a3.622,3.622,0,0,1-1.159-.191,3.069,3.069,0,0,1-1.019-.571,2.874,2.874,0,0,1-.725-.947,2.958,2.958,0,0,1-.277-1.312h1.258a2.307,2.307,0,0,0,.15.878,1.652,1.652,0,0,0,.414.6,1.655,1.655,0,0,0,.612.352,2.406,2.406,0,0,0,.745.113,1.672,1.672,0,0,0,1.244-.424A1.576,1.576,0,0,0,34.051-2.516Z" transform="translate(60 28)" fill="#fff"/>
        </g>
      </g>
    </g>
    <g id="Gruppe_1" data-name="Gruppe 1">
      <g id="Pfad_2111" data-name="Pfad 2111" transform="translate(73 87)" fill="none">
        <path d="M107,0A107,107,0,1,1,0,107,107,107,0,0,1,107,0Z" stroke="none"/>
        <path d="M 107 5 C 100.0761566162109 5 93.15815734863281 5.697250366210938 86.43815612792969 7.072341918945313 C 79.89146423339844 8.412002563476563 73.45196533203125 10.41093444824219 67.29853820800781 13.01362609863281 C 61.25569152832031 15.56953430175781 55.42697143554688 18.7332763671875 49.97431945800781 22.41703796386719 C 44.57215881347656 26.066650390625 39.4920654296875 30.25816345214844 34.87509155273438 34.87509155273438 C 30.25816345214844 39.4920654296875 26.066650390625 44.57215881347656 22.41703796386719 49.97431945800781 C 18.7332763671875 55.42697143554688 15.56953430175781 61.25569152832031 13.01362609863281 67.29853820800781 C 10.41093444824219 73.45196533203125 8.412002563476563 79.89146423339844 7.072341918945313 86.43815612792969 C 5.697250366210938 93.15815734863281 5 100.0761566162109 5 107 C 5 113.9238433837891 5.697250366210938 120.8418426513672 7.072341918945313 127.5618438720703 C 8.412002563476563 134.1085205078125 10.41093444824219 140.5480346679688 13.01362609863281 146.7014770507813 C 15.56953430175781 152.7443084716797 18.7332763671875 158.5730285644531 22.41703796386719 164.0256958007813 C 26.066650390625 169.4278411865234 30.25816345214844 174.5079345703125 34.87509155273438 179.1249084472656 C 39.4920654296875 183.7418518066406 44.57215881347656 187.933349609375 49.97431945800781 191.5829772949219 C 55.42697143554688 195.2667236328125 61.25569152832031 198.4304656982422 67.29853820800781 200.9863739013672 C 73.45196533203125 203.5890655517578 79.89146423339844 205.5879974365234 86.43815612792969 206.9276580810547 C 93.15815734863281 208.3027496337891 100.0761566162109 209 107 209 C 113.9238433837891 209 120.8418426513672 208.3027496337891 127.5618438720703 206.9276580810547 C 134.1085205078125 205.5879974365234 140.5480346679688 203.5890655517578 146.7014770507813 200.9863739013672 C 152.7443084716797 198.4304656982422 158.5730285644531 195.2667236328125 164.0256958007813 191.5829772949219 C 169.4278411865234 187.933349609375 174.5079345703125 183.7418518066406 179.1249084472656 179.1249084472656 C 183.7418518066406 174.5079345703125 187.933349609375 169.4278411865234 191.5829772949219 164.0256958007813 C 195.2667236328125 158.5730285644531 198.4304656982422 152.7443084716797 200.9863739013672 146.7014770507813 C 203.5890655517578 140.5480346679688 205.5879974365234 134.1085205078125 206.9276580810547 127.5618438720703 C 208.3027496337891 120.8418426513672 209 113.9238433837891 209 107 C 209 100.0761566162109 208.3027496337891 93.15815734863281 206.9276580810547 86.43815612792969 C 205.5879974365234 79.89146423339844 203.5890655517578 73.45196533203125 200.9863739013672 67.29853820800781 C 198.4304656982422 61.25569152832031 195.2667236328125 55.42697143554688 191.5829772949219 49.97431945800781 C 187.933349609375 44.57215881347656 183.7418518066406 39.4920654296875 179.1249084472656 34.87509155273438 C 174.5079345703125 30.25816345214844 169.4278411865234 26.066650390625 164.0256958007813 22.41703796386719 C 158.5730285644531 18.7332763671875 152.7443084716797 15.56953430175781 146.7014770507813 13.01362609863281 C 140.5480346679688 10.41093444824219 134.1085205078125 8.412002563476563 127.5618438720703 7.072341918945313 C 120.8418426513672 5.697250366210938 113.9238433837891 5 107 5 M 107 0 C 166.0944671630859 0 214 47.90553283691406 214 107 C 214 166.0944671630859 166.0944671630859 214 107 214 C 47.90553283691406 214 0 166.0944671630859 0 107 C 0 47.90553283691406 47.90553283691406 0 107 0 Z" stroke="none" fill="#007d51"/>
      </g>
      <line id="Linie_1" data-name="Linie 1" y2="6" transform="translate(180.5 295.5)" fill="none" stroke="#33333d" stroke-width="5"/>
    </g>
    <g id="attach_money-24px" transform="translate(45 36)">
      <path id="Pfad_2112" data-name="Pfad 2112" d="M0,0H24V24H0Z" fill="none"/>
      <path id="Pfad_2113" data-name="Pfad 2113" d="M11.8,10.9c-2.27-.59-3-1.2-3-2.15,0-1.09,1.01-1.85,2.7-1.85,1.78,0,2.44.85,2.5,2.1h2.21A3.986,3.986,0,0,0,13,5.19V3H10V5.16c-1.94.42-3.5,1.68-3.5,3.61,0,2.31,1.91,3.46,4.7,4.13,2.5.6,3,1.48,3,2.41,0,.69-.49,1.79-2.7,1.79-2.06,0-2.87-.92-2.98-2.1H6.32c.12,2.19,1.76,3.42,3.68,3.83V21h3V18.85c1.95-.37,3.5-1.5,3.5-3.55C16.5,12.46,14.07,11.49,11.8,10.9Z" fill="#fff"/>
    </g>
    <path id="Pfad_2116" data-name="Pfad 2116" d="M-46.486-4.248a4.137,4.137,0,0,1-1.164,3A5.676,5.676,0,0,1-50.638.336V3.48H-52.63V.456a11.227,11.227,0,0,1-2.688-.492A6.334,6.334,0,0,1-57.5-1.128l.024-.072-.024-.84a16.313,16.313,0,0,1,.312-3.336h1.512l.768,3.168a6.839,6.839,0,0,0,3.6.912l.528-.024a2.31,2.31,0,0,0,1.344-2.232,2.682,2.682,0,0,0-1.632-2.28l-3.792-1.944A4.438,4.438,0,0,1-57.43-11.64a3.835,3.835,0,0,1,1.344-3.024A6.292,6.292,0,0,1-52.63-16.1V-18.84h1.968v2.712a15.824,15.824,0,0,1,3.456.744,17.017,17.017,0,0,1-.312,4.248h-1.608l-.456-2.5a6.127,6.127,0,0,0-3.168-.792l-.72.024A2.272,2.272,0,0,0-54.6-12.336q0,1.272,1.728,2.184l3.6,1.776Q-46.486-6.816-46.486-4.248ZM-33.571-1.2l-.12,1.2h-8.736l-.144-.816a25.167,25.167,0,0,1,3.288-1.1V-12.912l-2.9,1.3-.72-1.248,5.088-3.216,1.344.816V-1.608ZM-27.089.864A4.291,4.291,0,0,1-29.033-.648a4.311,4.311,0,0,1,1.584-1.92,4.64,4.64,0,0,1,1.872,1.512A3.943,3.943,0,0,1-27.089.864Zm14.978-14.5A72.154,72.154,0,0,0-18.566.36L-21.35-.5a65.294,65.294,0,0,1,6.672-12.888l-.168-.216-5.592.216-.312,2.208-1.824-.024a17.063,17.063,0,0,1-.288-3.432l.024-.96h9.792ZM2.412-4.3A23.7,23.7,0,0,1,1.692,0L1.548-.048V0H-8.436l-.456-1.752L-3.516-7.7q2.16-2.5,2.16-4.152a2.469,2.469,0,0,0-.612-1.668,2.358,2.358,0,0,0-1.884-.708,8.586,8.586,0,0,0-1.9.264l-.7,3.456-1.776-.024a15.1,15.1,0,0,1-.288-3.1l.024-.888-.024-.024A10.093,10.093,0,0,1-3.324-16.08,5.1,5.1,0,0,1,.192-14.808,4.044,4.044,0,0,1,1.62-11.664a4.736,4.736,0,0,1-.756,2.52,22.136,22.136,0,0,1-2.508,3.12l-3.888,4.08.1.192,5.208-.456L.924-4.584ZM14.126-8.4a4.3,4.3,0,0,1,2.592,1.488A4.175,4.175,0,0,1,17.774-4.1a4.043,4.043,0,0,1-1.6,3.252A6.283,6.283,0,0,1,12.062.456,11.717,11.717,0,0,1,7.07-.7l.672-2.736a11.826,11.826,0,0,0,5.664,1.7l.6-.024a2.925,2.925,0,0,0,.864-2.112A2.7,2.7,0,0,0,13.9-5.952a3.961,3.961,0,0,0-2.724-.864L9.59-6.744,9.518-8.52H9.9a4.814,4.814,0,0,0,3.144-1.008,2.866,2.866,0,0,0,1.032-2.184,2.452,2.452,0,0,0-.816-1.9,3.188,3.188,0,0,0-2.232-.744l-1.1.12-.672,3-1.728-.024a13.164,13.164,0,0,1-.264-2.472l.048-1.008a8.152,8.152,0,0,1,4.752-1.344,5.461,5.461,0,0,1,3.552,1.128,3.5,3.5,0,0,1,1.392,2.832,3.59,3.59,0,0,1-.732,2.172A4.693,4.693,0,0,1,14.126-8.4ZM22.193,2.448A3.886,3.886,0,0,0,23.825-.168L22.577-1.176a2.876,2.876,0,0,1,1.68-2.184,2.48,2.48,0,0,1,1.92,2.5A4.078,4.078,0,0,1,25.3,1.524,6.512,6.512,0,0,1,23.009,3.48ZM41.923-4.3A23.7,23.7,0,0,1,41.2,0l-.144-.048V0H31.075l-.456-1.752L36-7.7q2.16-2.5,2.16-4.152a2.469,2.469,0,0,0-.612-1.668,2.358,2.358,0,0,0-1.884-.708,8.586,8.586,0,0,0-1.9.264l-.7,3.456-1.776-.024a15.1,15.1,0,0,1-.288-3.1l.024-.888L31-14.544a10.093,10.093,0,0,1,5.184-1.536A5.1,5.1,0,0,1,39.7-14.808a4.044,4.044,0,0,1,1.428,3.144,4.736,4.736,0,0,1-.756,2.52,22.136,22.136,0,0,1-2.508,3.12l-3.888,4.08.1.192,5.208-.456,1.152-2.376Zm15.65,0a23.7,23.7,0,0,1-.72,4.3L56.71-.048V0H46.726L46.27-1.752,51.646-7.7q2.16-2.5,2.16-4.152a2.469,2.469,0,0,0-.612-1.668,2.358,2.358,0,0,0-1.884-.708,8.586,8.586,0,0,0-1.9.264l-.7,3.456-1.776-.024a15.1,15.1,0,0,1-.288-3.1l.024-.888-.024-.024a10.093,10.093,0,0,1,5.184-1.536,5.1,5.1,0,0,1,3.516,1.272,4.044,4.044,0,0,1,1.428,3.144,4.736,4.736,0,0,1-.756,2.52,22.136,22.136,0,0,1-2.508,3.12L49.63-1.944l.1.192,5.208-.456,1.152-2.376Z" transform="translate(180 200)" fill="#fff"/>
    <path id="Pfad_2117" data-name="Pfad 2117" d="M5.225-2.256a3.51,3.51,0,0,1-.183.986A2.1,2.1,0,0,1,4.6-.53a1.847,1.847,0,0,1-.7.466A2.682,2.682,0,0,1,2.935.1a2.173,2.173,0,0,1-.967-.21,2.064,2.064,0,0,1-.732-.6,2.838,2.838,0,0,1-.466-.942A4.359,4.359,0,0,1,.605-2.9V-4.209A4.366,4.366,0,0,1,.769-5.447a2.756,2.756,0,0,1,.474-.945A2.107,2.107,0,0,1,2-6.995a2.348,2.348,0,0,1,1.016-.212,2.492,2.492,0,0,1,.916.156,1.8,1.8,0,0,1,.676.459,2.133,2.133,0,0,1,.435.747,3.525,3.525,0,0,1,.181,1.021h-.9a3.752,3.752,0,0,0-.112-.723,1.391,1.391,0,0,0-.239-.5.941.941,0,0,0-.391-.293,1.49,1.49,0,0,0-.562-.1,1.357,1.357,0,0,0-.674.159,1.322,1.322,0,0,0-.469.447,2.123,2.123,0,0,0-.276.7,4.254,4.254,0,0,0-.09.913V-2.9a4.763,4.763,0,0,0,.076.874,2.326,2.326,0,0,0,.244.708,1.3,1.3,0,0,0,.442.476,1.215,1.215,0,0,0,.664.173,1.84,1.84,0,0,0,.618-.09.923.923,0,0,0,.41-.283A1.319,1.319,0,0,0,4.2-1.531a3.947,3.947,0,0,0,.117-.725ZM8.069-4.741a1.7,1.7,0,0,1,.554-.471,1.49,1.49,0,0,1,.706-.168,1.571,1.571,0,0,1,.586.1,1.08,1.08,0,0,1,.449.337,1.639,1.639,0,0,1,.286.6,3.361,3.361,0,0,1,.1.881V0H9.89V-3.472a1.44,1.44,0,0,0-.208-.881.747.747,0,0,0-.623-.261.877.877,0,0,0-.579.215,1.548,1.548,0,0,0-.413.562V0H7.2V-7.5h.864ZM14.814.1a2.438,2.438,0,0,1-.854-.142,1.637,1.637,0,0,1-.647-.432,1.944,1.944,0,0,1-.408-.735,3.471,3.471,0,0,1-.142-1.05v-.6a3.643,3.643,0,0,1,.166-1.179,2.243,2.243,0,0,1,.437-.781,1.58,1.58,0,0,1,.623-.432,2.055,2.055,0,0,1,.728-.132,2,2,0,0,1,.85.164,1.437,1.437,0,0,1,.576.481,2.136,2.136,0,0,1,.327.781,4.988,4.988,0,0,1,.1,1.069v.5H13.623v.122a1.927,1.927,0,0,0,.32,1.235,1.128,1.128,0,0,0,.92.386,1.634,1.634,0,0,0,.4-.044,1.34,1.34,0,0,0,.322-.125A1.43,1.43,0,0,0,15.849-1a2.16,2.16,0,0,0,.229-.242l.449.547a1.942,1.942,0,0,1-.259.293,1.634,1.634,0,0,1-.361.251,2.192,2.192,0,0,1-.481.178A2.511,2.511,0,0,1,14.814.1Zm-.1-4.736a1.22,1.22,0,0,0-.415.068.772.772,0,0,0-.334.242,1.315,1.315,0,0,0-.232.466,3.087,3.087,0,0,0-.107.737h2.08v-.117a3.807,3.807,0,0,0-.066-.564,1.4,1.4,0,0,0-.161-.442.772.772,0,0,0-.3-.288A.961.961,0,0,0,14.717-4.639Zm5.618,4A1.106,1.106,0,0,0,20.7-.7.826.826,0,0,0,21-.881a.913.913,0,0,0,.212-.317,1.407,1.407,0,0,0,.1-.466h.815a1.877,1.877,0,0,1-.164.72,1.8,1.8,0,0,1-.391.557,1.724,1.724,0,0,1-.559.359A1.8,1.8,0,0,1,20.334.1a2.2,2.2,0,0,1-.891-.166,1.621,1.621,0,0,1-.627-.479,2.08,2.08,0,0,1-.371-.767,3.976,3.976,0,0,1-.122-1.03v-.6a3.948,3.948,0,0,1,.122-1.028,2.1,2.1,0,0,1,.371-.767,1.615,1.615,0,0,1,.625-.481,2.187,2.187,0,0,1,.889-.166,1.943,1.943,0,0,1,.725.129,1.532,1.532,0,0,1,.557.376,1.757,1.757,0,0,1,.364.6,2.554,2.554,0,0,1,.146.806h-.815a1.435,1.435,0,0,0-.281-.879.868.868,0,0,0-.7-.293,1.148,1.148,0,0,0-.562.122.909.909,0,0,0-.349.344,1.556,1.556,0,0,0-.181.535,4.335,4.335,0,0,0-.051.7v.6a4.632,4.632,0,0,0,.049.706,1.524,1.524,0,0,0,.178.537.887.887,0,0,0,.352.342A1.194,1.194,0,0,0,20.334-.64Zm5-1.777-.459.527V0h-.864V-7.5h.864v4.487l.386-.532,1.26-1.738h1.035l-1.68,2.207L27.778,0H26.772Zm5,2.417h-.864V-5.283h.864Zm-.913-6.685a.572.572,0,0,1,.122-.371.442.442,0,0,1,.366-.151.446.446,0,0,1,.369.154.568.568,0,0,1,.125.369.553.553,0,0,1-.122.366.456.456,0,0,1-.371.146.449.449,0,0,1-.366-.146A.553.553,0,0,1,29.426-6.685Zm3.977,1.4.024.571a1.743,1.743,0,0,1,.564-.493,1.488,1.488,0,0,1,.72-.176,1.571,1.571,0,0,1,.586.1,1.081,1.081,0,0,1,.449.337,1.639,1.639,0,0,1,.286.6,3.361,3.361,0,0,1,.1.881V0h-.859V-3.472a1.44,1.44,0,0,0-.208-.881.747.747,0,0,0-.623-.261.877.877,0,0,0-.579.215,1.548,1.548,0,0,0-.413.562V0h-.864V-5.283Zm4.744,2.4A4.541,4.541,0,0,1,38.268-4a2.2,2.2,0,0,1,.352-.779,1.413,1.413,0,0,1,.557-.452,1.773,1.773,0,0,1,.732-.146,1.4,1.4,0,0,1,.723.176,1.461,1.461,0,0,1,.5.513l.044-.591h.781V.044a2.672,2.672,0,0,1-.139.911,1.665,1.665,0,0,1-.393.632,1.606,1.606,0,0,1-.6.371,2.317,2.317,0,0,1-.769.122,1.98,1.98,0,0,1-.366-.042,2.879,2.879,0,0,1-.442-.125,2.7,2.7,0,0,1-.439-.208,1.4,1.4,0,0,1-.359-.3l.352-.6a1.813,1.813,0,0,0,.6.4,1.6,1.6,0,0,0,.591.125,1.5,1.5,0,0,0,.459-.066.831.831,0,0,0,.349-.215.99.99,0,0,0,.222-.388A1.906,1.906,0,0,0,41.1.088v-.61a1.42,1.42,0,0,1-.5.461A1.432,1.432,0,0,1,39.9.1a1.673,1.673,0,0,1-.725-.154,1.474,1.474,0,0,1-.554-.461,2.255,2.255,0,0,1-.354-.774,4.279,4.279,0,0,1-.125-1.1Zm.864.493a2.53,2.53,0,0,0,.261,1.306.933.933,0,0,0,.857.417.918.918,0,0,0,.6-.186,1.383,1.383,0,0,0,.371-.474V-3.965a1.409,1.409,0,0,0-.378-.466.9.9,0,0,0-.579-.183.939.939,0,0,0-.864.425,2.541,2.541,0,0,0-.264,1.309Z" transform="translate(28 364)" fill="#fff"/>
    <rect id="Rechteck_608" data-name="Rechteck 608" width="4" height="28" transform="translate(14 354)" fill="#007d51"/>
    <path id="Pfad_2118" data-name="Pfad 2118" d="M.674-3.56A.592.592,0,0,1,.8-3.95a.475.475,0,0,1,.388-.156.482.482,0,0,1,.391.156.585.585,0,0,1,.132.391.568.568,0,0,1-.132.383.486.486,0,0,1-.391.154A.479.479,0,0,1,.8-3.176.575.575,0,0,1,.674-3.56ZM4-3.56a.592.592,0,0,1,.129-.391.475.475,0,0,1,.388-.156A.482.482,0,0,1,4.9-3.95a.585.585,0,0,1,.132.391.568.568,0,0,1-.132.383.486.486,0,0,1-.391.154.479.479,0,0,1-.388-.154A.575.575,0,0,1,4-3.56Zm3.323,0a.592.592,0,0,1,.129-.391.475.475,0,0,1,.388-.156.482.482,0,0,1,.391.156.585.585,0,0,1,.132.391.568.568,0,0,1-.132.383.486.486,0,0,1-.391.154.479.479,0,0,1-.388-.154A.575.575,0,0,1,7.319-3.56Zm3.323,0a.592.592,0,0,1,.129-.391.475.475,0,0,1,.388-.156.482.482,0,0,1,.391.156.585.585,0,0,1,.132.391.568.568,0,0,1-.132.383.486.486,0,0,1-.391.154.479.479,0,0,1-.388-.154A.575.575,0,0,1,10.642-3.56Zm3.323,0a.592.592,0,0,1,.129-.391.475.475,0,0,1,.388-.156.482.482,0,0,1,.391.156A.585.585,0,0,1,15-3.56a.568.568,0,0,1-.132.383.486.486,0,0,1-.391.154.479.479,0,0,1-.388-.154A.575.575,0,0,1,13.964-3.56Zm3.323,0a.592.592,0,0,1,.129-.391.475.475,0,0,1,.388-.156.482.482,0,0,1,.391.156.585.585,0,0,1,.132.391.568.568,0,0,1-.132.383.486.486,0,0,1-.391.154.479.479,0,0,1-.388-.154A.575.575,0,0,1,17.287-3.56Zm3.323,0a.592.592,0,0,1,.129-.391.475.475,0,0,1,.388-.156.482.482,0,0,1,.391.156.585.585,0,0,1,.132.391.568.568,0,0,1-.132.383.486.486,0,0,1-.391.154.479.479,0,0,1-.388-.154A.575.575,0,0,1,20.61-3.56Zm3.323,0a.592.592,0,0,1,.129-.391.475.475,0,0,1,.388-.156.482.482,0,0,1,.391.156.585.585,0,0,1,.132.391.568.568,0,0,1-.132.383.486.486,0,0,1-.391.154.479.479,0,0,1-.388-.154A.575.575,0,0,1,23.932-3.56Zm3.323,0a.592.592,0,0,1,.129-.391.475.475,0,0,1,.388-.156.482.482,0,0,1,.391.156.585.585,0,0,1,.132.391.568.568,0,0,1-.132.383.486.486,0,0,1-.391.154.479.479,0,0,1-.388-.154A.575.575,0,0,1,27.255-3.56Z" transform="translate(28 379)" fill="#fff"/>
    <g id="Icon_Keyboard_Arrow_-_Right_Outlined" data-name="Icon / Keyboard Arrow - Right / Outlined" transform="translate(328 356)" opacity="0.75" clip-path="url(#clip-path-2)">
      <rect id="Box-2" data-name="Box" width="24" height="24" fill="none"/>
      <path id="Icon_Keyboard_Arrow_-_Up_Dark" data-name="Icon / Keyboard Arrow - Up / Dark" d="M10.6,7.4,6,2.8,1.4,7.4,0,6,6,0l6,6Z" transform="translate(15.7 5.7) rotate(90)" fill="#fff"/>
    </g>
    <path id="Pfad_2115" data-name="Pfad 2115" d="M-42.308-1.72A1.7,1.7,0,0,1-42.773-.5a2.209,2.209,0,0,1-1.185.64V1.45h-.63V.2A4.522,4.522,0,0,1-45.733,0a2.05,2.05,0,0,1-.9-.49l-.01-.35a7.462,7.462,0,0,1,.11-1.34h.54l.14,1.2a2.7,2.7,0,0,0,1.67.52l.34-.02a1.068,1.068,0,0,0,.58-1.02,1.166,1.166,0,0,0-.7-1.01l-1.62-.84a1.766,1.766,0,0,1-1.01-1.54,1.526,1.526,0,0,1,.575-1.235,2.554,2.554,0,0,1,1.425-.555V-7.85h.62v1.16a5.9,5.9,0,0,1,1.36.3l.01.35a7.569,7.569,0,0,1-.11,1.34h-.54l-.1-.91a2.175,2.175,0,0,0-1.37-.44l-.46.04a.986.986,0,0,0-.48.91,1.1,1.1,0,0,0,.69.95l1.6.81A1.827,1.827,0,0,1-42.308-1.72Zm5.181,1.24-.06.48h-3.37l-.06-.34a11.087,11.087,0,0,1,1.37-.42V-5.57l-1.22.58-.28-.45,1.92-1.26.47.25v5.8Zm2.571.81a1.344,1.344,0,0,1-.67-.52,1.51,1.51,0,0,1,.54-.66,1.429,1.429,0,0,1,.65.52A1.3,1.3,0,0,1-34.556.33Zm5.911-6.08A26.247,26.247,0,0,0-31.315.11l-.92-.26a24.772,24.772,0,0,1,2.76-5.53l-.07-.09-2.58.11-.11.84-.57-.01a7.4,7.4,0,0,1-.09-1.21l.01-.46h3.88Zm5.861,4.1A9.541,9.541,0,0,1-23.054,0h-3.99l-.18-.64,2.32-2.61a2.919,2.919,0,0,0,.85-1.7,1.106,1.106,0,0,0-.26-.725.965.965,0,0,0-.79-.315,3.935,3.935,0,0,0-1.12.19l-.18,1.25-.57-.01a6.559,6.559,0,0,1-.09-1.08l.01-.43a3.955,3.955,0,0,1,2.06-.63,1.94,1.94,0,0,1,1.355.5,1.639,1.639,0,0,1,.555,1.265,1.922,1.922,0,0,1-.22.875,8.448,8.448,0,0,1-1.08,1.415l-1.73,1.85.03.09,2.44-.14.32-.89Zm4.721-1.89A1.878,1.878,0,0,1-17-2.87a1.8,1.8,0,0,1,.435,1.17,1.712,1.712,0,0,1-.62,1.355,2.377,2.377,0,0,1-1.61.535,4.109,4.109,0,0,1-1.93-.47l.18-.9a4.789,4.789,0,0,0,2.15.55,2.4,2.4,0,0,0,.56-.06,1.315,1.315,0,0,0,.37-.92,1.17,1.17,0,0,0-.43-.915,1.815,1.815,0,0,0-1.23-.375l-.71.03-.02-.68h.17a2.11,2.11,0,0,0,1.39-.435,1.258,1.258,0,0,0,.44-.955,1.072,1.072,0,0,0-.335-.81,1.3,1.3,0,0,0-.935-.32,2.36,2.36,0,0,0-.69.11l-.18,1.1-.58-.01a5.7,5.7,0,0,1-.09-.91l.01-.38a3.135,3.135,0,0,1,1.83-.54,2.04,2.04,0,0,1,1.38.465A1.464,1.464,0,0,1-16.9-5.08a1.537,1.537,0,0,1-.3.9A1.822,1.822,0,0,1-18.063-3.54ZM-14.7,1.08A1.667,1.667,0,0,0-14.022,0l-.52-.4a1.025,1.025,0,0,1,.61-.8.973.973,0,0,1,.52.36.975.975,0,0,1,.19.59,1.688,1.688,0,0,1-.315.935,2.363,2.363,0,0,1-.875.775Zm7.791-2.73A9.541,9.541,0,0,1-7.181,0h-3.99l-.18-.64,2.32-2.61a2.919,2.919,0,0,0,.85-1.7,1.106,1.106,0,0,0-.26-.725.965.965,0,0,0-.79-.315,3.935,3.935,0,0,0-1.12.19l-.18,1.25-.57-.01a6.559,6.559,0,0,1-.09-1.08l.01-.43a3.955,3.955,0,0,1,2.06-.63,1.94,1.94,0,0,1,1.355.5A1.639,1.639,0,0,1-7.211-4.93a1.922,1.922,0,0,1-.22.875A8.448,8.448,0,0,1-8.511-2.64l-1.73,1.85.03.09,2.44-.14.32-.89Zm6.341,0A9.541,9.541,0,0,1-.84,0H-4.83l-.18-.64,2.32-2.61a2.919,2.919,0,0,0,.85-1.7,1.106,1.106,0,0,0-.26-.725.965.965,0,0,0-.79-.315,3.935,3.935,0,0,0-1.12.19l-.18,1.25-.57-.01a6.559,6.559,0,0,1-.09-1.08l.01-.43A3.955,3.955,0,0,1-2.78-6.7a1.94,1.94,0,0,1,1.355.5A1.639,1.639,0,0,1-.87-4.93a1.922,1.922,0,0,1-.22.875A8.447,8.447,0,0,1-2.17-2.64L-3.9-.79l.03.09,2.44-.14.32-.89Z" transform="translate(320 372)" fill="#fff"/>
  </g>
</svg>
