<svg viewBox="0 0 18.71 20.6" xmlns="http://www.w3.org/2000/svg">
    <title>add_account</title>
    <rect height="6.63" width="2.84" x="7.57" y="9.24" />
    <path d="M14.31,8.13a5,5,0,0,1,.88-2.82l-1.38-.72-9,4.73v1.9H15.41A4.91,4.91,0,0,1,14.31,8.13Z" transform="translate(-4.82 -3.87)" />
    <rect height="6.63" width="2.84" x="13.26" y="9.24" />
    <rect height="2.84" width="17.99" y="17.76" />
    <rect height="6.63" width="2.84" x="1.89" y="9.24" />
    <path d="M19.27,3.87a4.26,4.26,0,1,0,4.26,4.26A4.26,4.26,0,0,0,19.27,3.87ZM21.4,8.56H19.69v1.7h-.85V8.56h-1.7V7.71h1.7V6h.85V7.71H21.4Z" transform="translate(-4.82 -3.87)" />
</svg>