<svg viewBox="0 0 21.83 21.83" xmlns="http://www.w3.org/2000/svg">
    <title>add_budget</title>
    <path
        d="M20.48,12.83a5,5,0,0,1-5-5,5,5,0,0,1,.57-2.28h-11A2.22,2.22,0,0,0,2.91,7.8V23.23a2.22,2.22,0,0,0,2.2,2.21H20.55a2.22,2.22,0,0,0,2.2-2.21v-11A4.84,4.84,0,0,1,20.48,12.83ZM9.52,21H7.32V13.31h2.2Zm4.41,0h-2.2V10h2.2Zm4.41,0h-2.2V16.62h2.2Z"
        transform="translate(-2.91 -3.61)" />
    <path d="M20.48,3.61a4.26,4.26,0,1,0,4.26,4.26A4.26,4.26,0,0,0,20.48,3.61ZM22.61,8.3H20.9V10h-.85V8.3h-1.7V7.44h1.7V5.74h.85v1.7h1.71Z" transform="translate(-2.91 -3.61)" />
</svg>