<svg xmlns="http://www.w3.org/2000/svg" xmlns:xlink="http://www.w3.org/1999/xlink" viewBox="0 0 360 431"><defs><clipPath id="a"><rect width="360" height="431" fill="none"/></clipPath><clipPath id="b"><rect y="24" width="360" height="48" fill="none"/></clipPath></defs><title>Budgets</title><rect width="360" height="431" fill="#33333d"/><g clip-path="url(#a)"><rect width="360" height="24" fill="#27272f"/><path d="M307,7h10V17H307Zm40,10L341,7h12ZM330,7a5,5,0,1,1-5,5A5,5,0,0,1,330,7Z" fill="#bababa" fill-rule="evenodd"/></g><g clip-path="url(#b)"><g style="isolation:isolate"><g clip-path="url(#b)"><rect y="71" width="360" height="1" opacity="0.1"/><path d="M80.69,52v-10h2.84a4.06,4.06,0,0,1,1.15.15,2.07,2.07,0,0,1,.86.48,2,2,0,0,1,.54.82,3.57,3.57,0,0,1,.18,1.2,2.16,2.16,0,0,1-.35,1.23,2.3,2.3,0,0,1-.94.83,1.77,1.77,0,0,1,.64.33,2,2,0,0,1,.46.54,2.65,2.65,0,0,1,.29.69,3.91,3.91,0,0,1-.1,2,2.56,2.56,0,0,1-.57.91,2.48,2.48,0,0,1-.88.55,3.53,3.53,0,0,1-1.16.18Zm1.25-5.71h1.61a1.4,1.4,0,0,0,.58-.11,1.33,1.33,0,0,0,.46-.31,1.48,1.48,0,0,0,.3-.5,2.06,2.06,0,0,0,.11-.68,1.68,1.68,0,0,0-.36-1.19,1.5,1.5,0,0,0-1.11-.37H81.94Zm0,1.05v3.59h1.71a1.69,1.69,0,0,0,.66-.13,1.3,1.3,0,0,0,.48-.35,1.36,1.36,0,0,0,.3-.57,2.4,2.4,0,0,0,.11-.74,2.83,2.83,0,0,0-.09-.74,1.59,1.59,0,0,0-.27-.57,1.18,1.18,0,0,0-.46-.36,1.75,1.75,0,0,0-.68-.13Z" fill="#fff"/><path d="M95.51,42.05v7a3.77,3.77,0,0,1-.25,1.43,2.69,2.69,0,0,1-.68.95,2.52,2.52,0,0,1-1,.53,4.07,4.07,0,0,1-1.16.17,4.19,4.19,0,0,1-1.2-.17,2.38,2.38,0,0,1-1.61-1.48,3.78,3.78,0,0,1-.24-1.43v-7h1.24v7a3.3,3.3,0,0,0,.13,1,1.58,1.58,0,0,0,.37.62,1.34,1.34,0,0,0,.57.32,2.79,2.79,0,0,0,1.48,0,1.23,1.23,0,0,0,.57-.32,1.58,1.58,0,0,0,.37-.62,3,3,0,0,0,.13-1v-7Z" fill="#fff"/><path d="M98.68,52v-10h2.38a4,4,0,0,1,1.51.26,3.11,3.11,0,0,1,1.16.79,3.7,3.7,0,0,1,.74,1.29,5.79,5.79,0,0,1,.26,1.8v1.68a5.68,5.68,0,0,1-.26,1.79,3.54,3.54,0,0,1-.75,1.29,3.07,3.07,0,0,1-1.19.79,4.65,4.65,0,0,1-1.59.26Zm1.25-8.87v7.8h1a2.31,2.31,0,0,0,1.94-.78,3.59,3.59,0,0,0,.61-2.28v-1.7a3.57,3.57,0,0,0-.61-2.31,2.21,2.21,0,0,0-1.82-.73Z" fill="#fff"/><path d="M114.15,50.76a4.26,4.26,0,0,1-.33.4,2.4,2.4,0,0,1-.56.45,3.27,3.27,0,0,1-.86.37,4,4,0,0,1-1.23.16,3.73,3.73,0,0,1-1.41-.26,3.07,3.07,0,0,1-1.1-.78,3.58,3.58,0,0,1-.71-1.31A5.91,5.91,0,0,1,107.7,48V46.09q0-4.19,3.34-4.18a3.71,3.71,0,0,1,1.29.21,2.66,2.66,0,0,1,1,.6,2.77,2.77,0,0,1,.61,1,4.22,4.22,0,0,1,.26,1.29H112.9a2.5,2.5,0,0,0-.52-1.46,1.63,1.63,0,0,0-1.33-.52,2.15,2.15,0,0,0-1,.19,1.58,1.58,0,0,0-.65.58,2.6,2.6,0,0,0-.36,1,6.77,6.77,0,0,0-.12,1.35V48a5.57,5.57,0,0,0,.16,1.38,2.91,2.91,0,0,0,.45,1,1.74,1.74,0,0,0,.7.57,2.1,2.1,0,0,0,.92.19,3.65,3.65,0,0,0,.72-.07,2.09,2.09,0,0,0,.49-.19,1.3,1.3,0,0,0,.31-.22l.2-.18v-2.3h-1.82V47h3.07Z" fill="#fff"/><path d="M122.21,47.4h-3.52v3.53h4.1V52h-5.35v-10h5.29v1.08h-4v3.2h3.52Z" fill="#fff"/><path d="M131.59,43.13H129V52h-1.25V43.13h-2.62V42.05h6.48Z" fill="#fff"/><path d="M138.55,49.48a2.25,2.25,0,0,0-.08-.61,1.18,1.18,0,0,0-.29-.49,2.22,2.22,0,0,0-.57-.42,8.28,8.28,0,0,0-.94-.4,7.12,7.12,0,0,1-1.11-.48,3.8,3.8,0,0,1-.86-.62,2.69,2.69,0,0,1-.54-.8,2.61,2.61,0,0,1-.19-1,2.91,2.91,0,0,1,.2-1.07,2.56,2.56,0,0,1,.58-.86,2.31,2.31,0,0,1,.9-.57,3.14,3.14,0,0,1,1.18-.21,3,3,0,0,1,1.28.25,2.92,2.92,0,0,1,.94.67,2.86,2.86,0,0,1,.57,1,3.56,3.56,0,0,1,.19,1.12h-1.26a2.76,2.76,0,0,0-.1-.77,1.76,1.76,0,0,0-.31-.61,1.39,1.39,0,0,0-.54-.41,2,2,0,0,0-.77-.14,1.94,1.94,0,0,0-.72.12,1.52,1.52,0,0,0-.5.34,1.34,1.34,0,0,0-.28.51,2.2,2.2,0,0,0-.1.64,1.39,1.39,0,0,0,.46,1.06,4.11,4.11,0,0,0,1.39.76,6,6,0,0,1,1.24.53,3.47,3.47,0,0,1,.86.65,2.4,2.4,0,0,1,.48.83,3.35,3.35,0,0,1,.15,1,2.77,2.77,0,0,1-.2,1.1,2.29,2.29,0,0,1-.59.84,2.65,2.65,0,0,1-.91.54,3.82,3.82,0,0,1-2.38,0,3.19,3.19,0,0,1-1-.57,2.85,2.85,0,0,1-.72-1,2.9,2.9,0,0,1-.28-1.31H135a2.26,2.26,0,0,0,.15.87,1.68,1.68,0,0,0,.41.61,1.62,1.62,0,0,0,.61.35,2.31,2.31,0,0,0,.75.11,1.68,1.68,0,0,0,1.24-.42A1.57,1.57,0,0,0,138.55,49.48Z" fill="#fff"/></g></g></g><g clip-path="url(#a)"><path d="M49.33,40.06l-1.27,1.27,3.44,3.44c0,2.08,1.56,3.21,3.91,3.91l3.51,3.51a2.77,2.77,0,0,1-2.42.91c-2.06,0-2.87-.92-3-2.1h-2.2c.12,2.19,1.76,3.42,3.68,3.83V57h3V54.85a5,5,0,0,0,2.45-1.12L62.67,56l1.27-1.27ZM56.5,42.9c1.78,0,2.44.85,2.5,2.1h2.21A4,4,0,0,0,58,41.19V39H55v2.16a5.93,5.93,0,0,0-1.48.54L55,43.17a3.92,3.92,0,0,1,1.51-.27Z" fill="#fff"/><path d="M141.7,195.75a4.16,4.16,0,0,1-1.16,3,5.76,5.76,0,0,1-3,1.59v3.14h-2v-3a11.35,11.35,0,0,1-2.69-.5,6.4,6.4,0,0,1-2.19-1.09l0-.07,0-.84a16.25,16.25,0,0,1,.32-3.34h1.51l.77,3.17a6.78,6.78,0,0,0,3.6.91l.52,0a2.31,2.31,0,0,0,1.35-2.23,2.68,2.68,0,0,0-1.63-2.28l-3.8-1.95a4.42,4.42,0,0,1-2.56-3.86,3.81,3.81,0,0,1,1.34-3,6.22,6.22,0,0,1,3.46-1.44v-2.74h2v2.71a16,16,0,0,1,3.46.75,16.84,16.84,0,0,1-.31,4.24h-1.61l-.46-2.49a6.08,6.08,0,0,0-3.16-.79l-.72,0a2.25,2.25,0,0,0-1.13,2.06c0,.85.57,1.58,1.73,2.19l3.6,1.77Q141.7,193.18,141.7,195.75Z" fill="#fff"/><path d="M155.29,195.94v2.6l1.89.26-.12,1.2h-7.12l-.15-.82a17.24,17.24,0,0,1,2.74-1v-2.28H146l-.65-1.65L153,183.92l1.8.29,0,.07.51-.07v9.72l2.71-.07.05,1.44-.7.64ZM152.53,194v-4.94l.24-2.07-4.68,7.13Z" fill="#fff"/><path d="M161.24,192.34a9.64,9.64,0,0,1,1.74-5.91,5.33,5.33,0,0,1,4.45-2.34,4.93,4.93,0,0,1,4.18,2.12,9.4,9.4,0,0,1,1.56,5.68,10.35,10.35,0,0,1-1.63,6.07,5.25,5.25,0,0,1-8.65.11A9.36,9.36,0,0,1,161.24,192.34ZM165.9,186a5.42,5.42,0,0,0-1.31,2.61,13.61,13.61,0,0,0-.44,3.39,10,10,0,0,0,1,4.59,2.85,2.85,0,0,0,2.49,1.87,2.47,2.47,0,0,0,.89-.17,5.17,5.17,0,0,0,1.33-2.58,14.74,14.74,0,0,0,.42-3.52,10.51,10.51,0,0,0-.86-4.47,2.73,2.73,0,0,0-2.52-1.84A3.71,3.71,0,0,0,165.9,186Z" fill="#fff"/><path d="M177.23,192.34a9.64,9.64,0,0,1,1.74-5.91,5.32,5.32,0,0,1,4.45-2.34,5,5,0,0,1,4.18,2.12,9.4,9.4,0,0,1,1.56,5.68,10.35,10.35,0,0,1-1.64,6.07,5.25,5.25,0,0,1-8.65.11A9.42,9.42,0,0,1,177.23,192.34Zm4.65-6.31a5.41,5.41,0,0,0-1.3,2.61,13.63,13.63,0,0,0-.45,3.39,10,10,0,0,0,1,4.59,2.86,2.86,0,0,0,2.5,1.87,2.51,2.51,0,0,0,.89-.17,5.25,5.25,0,0,0,1.33-2.58,14.74,14.74,0,0,0,.42-3.52,10.36,10.36,0,0,0-.87-4.47,2.71,2.71,0,0,0-2.52-1.84A3.83,3.83,0,0,0,181.88,186Z" fill="#fff"/><path d="M193.33,202.45a3.9,3.9,0,0,0,1.64-2.62l-1.25-1a2.88,2.88,0,0,1,1.68-2.18,2.48,2.48,0,0,1,1.92,2.5,4,4,0,0,1-.88,2.38,6.54,6.54,0,0,1-2.29,2Z" fill="#fff"/><path d="M201.71,192.34a9.64,9.64,0,0,1,1.74-5.91,5.33,5.33,0,0,1,4.45-2.34,4.93,4.93,0,0,1,4.18,2.12,9.4,9.4,0,0,1,1.56,5.68A10.35,10.35,0,0,1,212,198a5.25,5.25,0,0,1-8.65.11A9.36,9.36,0,0,1,201.71,192.34Zm4.66-6.31a5.42,5.42,0,0,0-1.31,2.61,13.61,13.61,0,0,0-.44,3.39,10,10,0,0,0,1,4.59,2.85,2.85,0,0,0,2.49,1.87,2.47,2.47,0,0,0,.89-.17,5.17,5.17,0,0,0,1.33-2.58,14.74,14.74,0,0,0,.42-3.52,10.51,10.51,0,0,0-.86-4.47,2.73,2.73,0,0,0-2.52-1.84A3.71,3.71,0,0,0,206.37,186Z" fill="#fff"/><path d="M217.7,192.34a9.64,9.64,0,0,1,1.74-5.91,5.32,5.32,0,0,1,4.45-2.34,5,5,0,0,1,4.18,2.12,9.4,9.4,0,0,1,1.56,5.68A10.42,10.42,0,0,1,228,198a5.26,5.26,0,0,1-8.66.11A9.42,9.42,0,0,1,217.7,192.34Zm4.66-6.31a5.33,5.33,0,0,0-1.31,2.61,13.63,13.63,0,0,0-.45,3.39,10,10,0,0,0,1,4.59,2.87,2.87,0,0,0,2.5,1.87,2.51,2.51,0,0,0,.89-.17,5.25,5.25,0,0,0,1.33-2.58,14.74,14.74,0,0,0,.42-3.52,10.36,10.36,0,0,0-.87-4.47,2.71,2.71,0,0,0-2.52-1.84A3.69,3.69,0,0,0,222.36,186Z" fill="#fff"/><path d="M23.42,364h-.9v-3.29H19.66V364h-.89v-7.11h.89V360h2.86v-3.06h.9Z" fill="#fff"/><path d="M25.56,361.11a3.52,3.52,0,0,1,.15-1.08,2.44,2.44,0,0,1,.44-.78,1.67,1.67,0,0,1,.65-.47,1.89,1.89,0,0,1,.79-.16,2,2,0,0,1,.81.16,1.67,1.67,0,0,1,.65.47,2.25,2.25,0,0,1,.43.78,3.23,3.23,0,0,1,.16,1.08v.5a3.23,3.23,0,0,1-.16,1.08,2.25,2.25,0,0,1-.43.78,1.67,1.67,0,0,1-.65.47,1.91,1.91,0,0,1-.8.16,2,2,0,0,1-.8-.16,1.67,1.67,0,0,1-.65-.47,2.44,2.44,0,0,1-.44-.78,3.52,3.52,0,0,1-.15-1.08Zm.86.5a2.91,2.91,0,0,0,.09.77,1.5,1.5,0,0,0,.25.54,1,1,0,0,0,.37.33,1.08,1.08,0,0,0,.47.11c.79,0,1.18-.58,1.18-1.75v-.5a2.88,2.88,0,0,0-.09-.76,1.5,1.5,0,0,0-.25-.54,1.11,1.11,0,0,0-.38-.34,1,1,0,0,0-.93,0,1.08,1.08,0,0,0-.37.34,1.5,1.5,0,0,0-.25.54,2.88,2.88,0,0,0-.09.76Z" fill="#fff"/><path d="M34.34,363.54a1.47,1.47,0,0,1-.51.41,1.72,1.72,0,0,1-.74.15,1.64,1.64,0,0,1-.6-.11,1.2,1.2,0,0,1-.46-.35,1.82,1.82,0,0,1-.29-.61,3.35,3.35,0,0,1-.11-.9v-3.41h.86v3.42a2,2,0,0,0,.07.59,1,1,0,0,0,.17.36.54.54,0,0,0,.24.19.85.85,0,0,0,.26.05,1.11,1.11,0,0,0,.69-.19,1.19,1.19,0,0,0,.4-.51v-3.91h.86V364h-.82Z" fill="#fff"/><path d="M39.94,362.65a.59.59,0,0,0-.23-.5,3.2,3.2,0,0,0-.31-.22l-.48-.23-.66-.3a2.59,2.59,0,0,1-.49-.32,1.31,1.31,0,0,1-.3-.41,1.35,1.35,0,0,1-.1-.55,1.45,1.45,0,0,1,.12-.59,1.32,1.32,0,0,1,.34-.47,1.38,1.38,0,0,1,.52-.32,1.92,1.92,0,0,1,.69-.12,2,2,0,0,1,.72.12,1.66,1.66,0,0,1,.54.34,1.54,1.54,0,0,1,.33.51,1.68,1.68,0,0,1,.12.63h-.86a1.06,1.06,0,0,0,0-.31.88.88,0,0,0-.17-.28.79.79,0,0,0-.27-.2,1,1,0,0,0-.36-.07,1,1,0,0,0-.37.06.77.77,0,0,0-.25.16.61.61,0,0,0-.15.24.77.77,0,0,0,0,.27.62.62,0,0,0,0,.25.52.52,0,0,0,.14.2,1.36,1.36,0,0,0,.28.18,4.06,4.06,0,0,0,.46.22c.27.1.5.21.71.31a2.36,2.36,0,0,1,.52.35,1.31,1.31,0,0,1,.32.43,1.35,1.35,0,0,1,.1.55,1.57,1.57,0,0,1-.12.63,1.3,1.3,0,0,1-.35.48,1.67,1.67,0,0,1-.56.3,2.25,2.25,0,0,1-.71.11,2.14,2.14,0,0,1-.79-.14,1.55,1.55,0,0,1-.94-.91,1.68,1.68,0,0,1-.12-.63h.87a1.16,1.16,0,0,0,.1.46.85.85,0,0,0,.23.29,1,1,0,0,0,.31.15,1.37,1.37,0,0,0,.34,0,1,1,0,0,0,.66-.19A.65.65,0,0,0,39.94,362.65Z" fill="#fff"/><path d="M44.71,364.1a2.58,2.58,0,0,1-.86-.14,1.6,1.6,0,0,1-.64-.44,1.85,1.85,0,0,1-.41-.73,3.66,3.66,0,0,1-.14-1.05v-.6a3.74,3.74,0,0,1,.16-1.18,2.24,2.24,0,0,1,.44-.78,1.62,1.62,0,0,1,.62-.43,2,2,0,0,1,.73-.13,2,2,0,0,1,.85.16,1.5,1.5,0,0,1,.58.48,2.1,2.1,0,0,1,.32.78,4.89,4.89,0,0,1,.11,1.07v.51H43.52v.12a1.85,1.85,0,0,0,.32,1.23,1.12,1.12,0,0,0,.92.39,1.56,1.56,0,0,0,.39,0,1.2,1.2,0,0,0,.33-.13,1.57,1.57,0,0,0,.26-.19,1.31,1.31,0,0,0,.23-.24l.45.55a2.26,2.26,0,0,1-.26.29,1.64,1.64,0,0,1-.36.25,2.67,2.67,0,0,1-.48.18A2.27,2.27,0,0,1,44.71,364.1Zm-.1-4.74a1.07,1.07,0,0,0-.41.07.88.88,0,0,0-.34.24,1.47,1.47,0,0,0-.23.47,3.32,3.32,0,0,0-.11.74H45.6v-.12a4.75,4.75,0,0,0-.06-.57,1.75,1.75,0,0,0-.16-.44.92.92,0,0,0-.3-.29A1.06,1.06,0,0,0,44.61,359.36Z" fill="#fff"/><path d="M49.72,361.58l-.46.53V364H48.4v-7.5h.86V361l.39-.53,1.26-1.74h1l-1.68,2.2,1.9,3.08h-1Z" fill="#fff"/><path d="M55.58,364.1a2.52,2.52,0,0,1-.85-.14,1.63,1.63,0,0,1-.65-.44,2,2,0,0,1-.41-.73,3.66,3.66,0,0,1-.14-1.05v-.6A3.72,3.72,0,0,1,53.7,360a2.23,2.23,0,0,1,.43-.78,1.65,1.65,0,0,1,.63-.43,2.2,2.2,0,0,1,1.57,0,1.43,1.43,0,0,1,.58.48,2.3,2.3,0,0,1,.33.78,4.93,4.93,0,0,1,.1,1.07v.51h-3v.12a1.91,1.91,0,0,0,.32,1.23,1.12,1.12,0,0,0,.92.39,1.64,1.64,0,0,0,.4,0,1.27,1.27,0,0,0,.32-.13,1.31,1.31,0,0,0,.27-.19,1.75,1.75,0,0,0,.23-.24l.45.55a3.4,3.4,0,0,1-.26.29,1.64,1.64,0,0,1-.36.25,2.67,2.67,0,0,1-.48.18A2.4,2.4,0,0,1,55.58,364.1Zm-.1-4.74a1.1,1.1,0,0,0-.41.07.78.78,0,0,0-.33.24,1.3,1.3,0,0,0-.24.47,2.87,2.87,0,0,0-.1.74h2.08v-.12a4.67,4.67,0,0,0-.07-.57,1.43,1.43,0,0,0-.16-.44.76.76,0,0,0-.3-.29A1.06,1.06,0,0,0,55.48,359.36Z" fill="#fff"/><path d="M61.16,364.1a2.58,2.58,0,0,1-.86-.14,1.71,1.71,0,0,1-.65-.44,2,2,0,0,1-.4-.73,3.32,3.32,0,0,1-.15-1.05v-.6a3.72,3.72,0,0,1,.17-1.18,2.24,2.24,0,0,1,.44-.78,1.62,1.62,0,0,1,.62-.43,2.23,2.23,0,0,1,1.58,0,1.47,1.47,0,0,1,.57.48,2.3,2.3,0,0,1,.33.78,4.93,4.93,0,0,1,.1,1.07v.51H60v.12a1.91,1.91,0,0,0,.32,1.23,1.13,1.13,0,0,0,.92.39,1.64,1.64,0,0,0,.4,0,1.13,1.13,0,0,0,.32-.13,1.31,1.31,0,0,0,.27-.19,1.75,1.75,0,0,0,.23-.24l.45.55a2.26,2.26,0,0,1-.26.29,1.64,1.64,0,0,1-.36.25,2.67,2.67,0,0,1-.48.18A2.32,2.32,0,0,1,61.16,364.1Zm-.1-4.74a1.16,1.16,0,0,0-.42.07.85.85,0,0,0-.33.24,1.29,1.29,0,0,0-.23.47,2.83,2.83,0,0,0-.11.74h2.08v-.12a3.29,3.29,0,0,0-.07-.57,1.21,1.21,0,0,0-.16-.44.81.81,0,0,0-.29-.29A1.09,1.09,0,0,0,61.06,359.36Z" fill="#fff"/><path d="M68.66,361.61a3.16,3.16,0,0,1-.45,1.87,1.5,1.5,0,0,1-1.28.62,1.47,1.47,0,0,1-.72-.16,1.43,1.43,0,0,1-.51-.44V366h-.86v-7.31h.79l0,.58a1.37,1.37,0,0,1,1.25-.68,1.72,1.72,0,0,1,.74.15,1.25,1.25,0,0,1,.55.45,2,2,0,0,1,.33.78,4.57,4.57,0,0,1,.12,1.12Zm-.86-.49a2.49,2.49,0,0,0-.27-1.31,1,1,0,0,0-.88-.42.88.88,0,0,0-.57.17,1.2,1.2,0,0,0-.38.45v2.74a1.34,1.34,0,0,0,.37.44,1,1,0,0,0,.59.17.94.94,0,0,0,.86-.43,2.42,2.42,0,0,0,.28-1.32Z" fill="#fff"/><path d="M70.68,357.32a.6.6,0,0,1,.12-.38.47.47,0,0,1,.37-.15.43.43,0,0,1,.37.16.57.57,0,0,1,.12.37.56.56,0,0,1-.12.36.44.44,0,0,1-.37.15.47.47,0,0,1-.37-.15A.56.56,0,0,1,70.68,357.32ZM71.6,364h-.87v-5.28h.87Z" fill="#fff"/><path d="M74.66,358.72l0,.57a1.81,1.81,0,0,1,.57-.5,1.66,1.66,0,0,1,1.3-.07,1.08,1.08,0,0,1,.45.34,1.6,1.6,0,0,1,.29.6,3.18,3.18,0,0,1,.1.88V364h-.86v-3.47a1.42,1.42,0,0,0-.21-.88.72.72,0,0,0-.62-.26.88.88,0,0,0-.58.21,1.48,1.48,0,0,0-.41.56V364h-.87v-5.28Z" fill="#fff"/><path d="M79.4,361.12a4.57,4.57,0,0,1,.12-1.12,2.17,2.17,0,0,1,.36-.78,1.25,1.25,0,0,1,.55-.45,1.78,1.78,0,0,1,.74-.15,1.29,1.29,0,0,1,1.22.69l0-.59h.79V364a2.78,2.78,0,0,1-.14.92,1.84,1.84,0,0,1-.4.63,1.68,1.68,0,0,1-.6.37,2.35,2.35,0,0,1-.77.12,1.71,1.71,0,0,1-.36,0,2.54,2.54,0,0,1-.45-.13,2.86,2.86,0,0,1-.44-.2,1.29,1.29,0,0,1-.35-.3l.35-.59a2,2,0,0,0,.59.4,1.68,1.68,0,0,0,.59.12,1.6,1.6,0,0,0,.46-.06.84.84,0,0,0,.35-.22.93.93,0,0,0,.22-.39,1.66,1.66,0,0,0,.08-.58v-.61a1.53,1.53,0,0,1-1.91.46,1.38,1.38,0,0,1-.56-.46,2.19,2.19,0,0,1-.35-.77,4,4,0,0,1-.13-1.1Zm.87.49a2.48,2.48,0,0,0,.26,1.31.92.92,0,0,0,.85.42.94.94,0,0,0,.6-.19,1.33,1.33,0,0,0,.37-.47V360a1.36,1.36,0,0,0-.38-.47.89.89,0,0,0-.58-.18.94.94,0,0,0-.86.42,2.5,2.5,0,0,0-.26,1.31Z" fill="#fff"/><g opacity="0.75"><path d="M22.88,377.28a1.7,1.7,0,0,1-.46,1.22,2.24,2.24,0,0,1-1.19.64v1.31H20.6V379.2a4.27,4.27,0,0,1-1.14-.2,2,2,0,0,1-.9-.49v-.35a7.81,7.81,0,0,1,.11-1.34h.54l.14,1.2a2.68,2.68,0,0,0,1.67.52l.34,0a1.07,1.07,0,0,0,.58-1,1.16,1.16,0,0,0-.7-1l-1.62-.84a1.77,1.77,0,0,1-1-1.54,1.51,1.51,0,0,1,.57-1.23,2.54,2.54,0,0,1,1.43-.56v-1.17h.62v1.16a6.28,6.28,0,0,1,1.36.3V373a7.9,7.9,0,0,1-.11,1.34h-.54l-.1-.91a2.2,2.2,0,0,0-1.37-.44L20,373a1,1,0,0,0-.48.91,1.1,1.1,0,0,0,.69,1l1.6.81A1.83,1.83,0,0,1,22.88,377.28Z" fill="#fff"/></g><g opacity="0.75"><path d="M28.06,378.52,28,379H24.63l-.06-.34a12.58,12.58,0,0,1,1.37-.42v-4.81l-1.22.58-.28-.45,1.92-1.26.47.25v5.8Z" fill="#fff"/></g><g opacity="0.75"><path d="M31.75,375.09a2.54,2.54,0,0,1,1.67.55,1.85,1.85,0,0,1,.65,1.47,2,2,0,0,1-.62,1.5,2.21,2.21,0,0,1-1.58.59,3.7,3.7,0,0,1-1.14-.2,4.05,4.05,0,0,1-1.09-.51l.39-.82a3.82,3.82,0,0,0,2.15.72l.54-.05a1.33,1.33,0,0,0,.49-1,1.21,1.21,0,0,0-.46-1,1.8,1.8,0,0,0-1.12-.35,3.32,3.32,0,0,0-1.16.23l-.49-.43.35-3.23h3.4V373a7.13,7.13,0,0,1-.09,1.17h-.57l-.11-.84-2-.09-.2,2.07A2.23,2.23,0,0,1,31.75,375.09Z" fill="#fff"/></g><g opacity="0.75"><path d="M35.77,375.84a4.18,4.18,0,0,1,.69-2.48,2.07,2.07,0,0,1,1.78-1,1.84,1.84,0,0,1,1.66.9,4.33,4.33,0,0,1,.56,2.3,4.42,4.42,0,0,1-.65,2.55,2,2,0,0,1-3.4.06A4.06,4.06,0,0,1,35.77,375.84Zm1.74-2.72a2.3,2.3,0,0,0-.61,1.13,5.52,5.52,0,0,0-.21,1.45,3.91,3.91,0,0,0,.45,1.95,1.31,1.31,0,0,0,1.15.8,1.23,1.23,0,0,0,.42-.07,2.24,2.24,0,0,0,.63-1.14,6,6,0,0,0,.19-1.51,4,4,0,0,0-.4-1.9,1.25,1.25,0,0,0-1.16-.78A1.56,1.56,0,0,0,37.51,373.12Z" fill="#fff"/></g><g opacity="0.75"><path d="M42.26,380.08a1.64,1.64,0,0,0,.68-1.08l-.52-.4a1,1,0,0,1,.61-.8,1,1,0,0,1,.52.36,1,1,0,0,1,.19.59,1.64,1.64,0,0,1-.31.93,2.31,2.31,0,0,1-.88.78Z" fill="#fff"/></g><g opacity="0.75"><path d="M45.63,375.84a4.18,4.18,0,0,1,.69-2.48,2.09,2.09,0,0,1,1.78-1,1.84,1.84,0,0,1,1.66.9,4.24,4.24,0,0,1,.56,2.3,4.42,4.42,0,0,1-.65,2.55,2,2,0,0,1-3.4.06A4.06,4.06,0,0,1,45.63,375.84Zm1.75-2.72a2.31,2.31,0,0,0-.62,1.13,5.52,5.52,0,0,0-.21,1.45,3.91,3.91,0,0,0,.45,1.95,1.32,1.32,0,0,0,1.15.8,1.23,1.23,0,0,0,.42-.07,2.24,2.24,0,0,0,.63-1.14,6,6,0,0,0,.2-1.51,4,4,0,0,0-.41-1.9,1.25,1.25,0,0,0-1.16-.78A1.45,1.45,0,0,0,47.38,373.12Z" fill="#fff"/></g><g opacity="0.75"><path d="M52.17,375.84a4.18,4.18,0,0,1,.68-2.48,2.09,2.09,0,0,1,1.79-1,1.84,1.84,0,0,1,1.65.9,4.24,4.24,0,0,1,.57,2.3,4.5,4.5,0,0,1-.65,2.55,2,2,0,0,1-1.73,1,2,2,0,0,1-1.67-.9A4,4,0,0,1,52.17,375.84Zm1.74-2.72a2.31,2.31,0,0,0-.62,1.13,5.49,5.49,0,0,0-.2,1.45,3.91,3.91,0,0,0,.44,1.95,1.32,1.32,0,0,0,1.16.8,1.23,1.23,0,0,0,.42-.07,2.31,2.31,0,0,0,.62-1.14,6,6,0,0,0,.2-1.51,4.17,4.17,0,0,0-.4-1.9,1.27,1.27,0,0,0-1.16-.78A1.51,1.51,0,0,0,53.91,373.12Z" fill="#fff"/></g><g opacity="0.75"><path d="M65.18,371.93l.63.27-3.06,8.05-.64-.25Z" fill="#fff"/></g><g opacity="0.75"><path d="M75.12,377.28a1.7,1.7,0,0,1-.46,1.22,2.2,2.2,0,0,1-1.19.64v1.31h-.63V379.2a4.27,4.27,0,0,1-1.14-.2,2,2,0,0,1-.9-.49v-.35a7.81,7.81,0,0,1,.11-1.34h.54l.14,1.2a2.68,2.68,0,0,0,1.67.52l.34,0a1.07,1.07,0,0,0,.58-1,1.16,1.16,0,0,0-.7-1l-1.62-.84a1.77,1.77,0,0,1-1-1.54,1.49,1.49,0,0,1,.58-1.23,2.48,2.48,0,0,1,1.42-.56v-1.17h.62v1.16a6.28,6.28,0,0,1,1.36.3V373a7.9,7.9,0,0,1-.11,1.34h-.54l-.1-.91a2.2,2.2,0,0,0-1.37-.44l-.46,0a1,1,0,0,0-.48.91,1.1,1.1,0,0,0,.69,1l1.6.81A1.83,1.83,0,0,1,75.12,377.28Z" fill="#fff"/></g><g opacity="0.75"><path d="M80.58,377.25v1.16l.83.11-.06.48H78.64l-.06-.34,1.11-.36v-1.05H76.91l-.23-.57,3.13-4.38.77.1v4.13l1.15,0v.5l-.28.25Zm-.89-.7v-2.38l.12-.91-2.15,3.35Z" fill="#fff"/></g><g opacity="0.75"><path d="M85.58,375.09a2.54,2.54,0,0,1,1.67.55,1.85,1.85,0,0,1,.65,1.47,2,2,0,0,1-.62,1.5,2.21,2.21,0,0,1-1.58.59,3.7,3.7,0,0,1-1.14-.2,4.05,4.05,0,0,1-1.09-.51l.39-.82a3.82,3.82,0,0,0,2.15.72l.54-.05a1.33,1.33,0,0,0,.49-1,1.21,1.21,0,0,0-.46-1,1.8,1.8,0,0,0-1.12-.35,3.32,3.32,0,0,0-1.16.23l-.49-.43.35-3.23h3.4V373a7.13,7.13,0,0,1-.09,1.17h-.57l-.11-.84-2-.09-.2,2.07A2.23,2.23,0,0,1,85.58,375.09Z" fill="#fff"/></g><g opacity="0.75"><path d="M89.6,375.84a4.18,4.18,0,0,1,.69-2.48,2.07,2.07,0,0,1,1.78-1,1.84,1.84,0,0,1,1.66.9,4.33,4.33,0,0,1,.56,2.3,4.42,4.42,0,0,1-.65,2.55,2,2,0,0,1-3.4.06A4.06,4.06,0,0,1,89.6,375.84Zm1.74-2.72a2.3,2.3,0,0,0-.61,1.13,5.52,5.52,0,0,0-.21,1.45,3.91,3.91,0,0,0,.45,1.95,1.31,1.31,0,0,0,1.15.8,1.23,1.23,0,0,0,.42-.07,2.24,2.24,0,0,0,.63-1.14,6,6,0,0,0,.19-1.51,4,4,0,0,0-.4-1.9,1.25,1.25,0,0,0-1.16-.78A1.56,1.56,0,0,0,91.34,373.12Z" fill="#fff"/></g><g opacity="0.75"><path d="M96.09,380.08a1.64,1.64,0,0,0,.68-1.08l-.52-.4a1,1,0,0,1,.61-.8,1,1,0,0,1,.52.36,1,1,0,0,1,.19.59,1.64,1.64,0,0,1-.31.93,2.31,2.31,0,0,1-.88.78Z" fill="#fff"/></g><g opacity="0.75"><path d="M99.46,375.84a4.18,4.18,0,0,1,.69-2.48,2.09,2.09,0,0,1,1.79-1,1.84,1.84,0,0,1,1.65.9,4.24,4.24,0,0,1,.56,2.3,4.42,4.42,0,0,1-.65,2.55,2,2,0,0,1-3.4.06A4.06,4.06,0,0,1,99.46,375.84Zm1.75-2.72a2.31,2.31,0,0,0-.62,1.13,5.52,5.52,0,0,0-.21,1.45,3.91,3.91,0,0,0,.45,1.95,1.32,1.32,0,0,0,1.15.8,1.2,1.2,0,0,0,.42-.07,2.24,2.24,0,0,0,.63-1.14,6,6,0,0,0,.2-1.51,4,4,0,0,0-.41-1.9,1.24,1.24,0,0,0-1.15-.78A1.47,1.47,0,0,0,101.21,373.12Z" fill="#fff"/></g><g opacity="0.75"><path d="M106,375.84a4.18,4.18,0,0,1,.68-2.48,2.09,2.09,0,0,1,1.79-1,1.84,1.84,0,0,1,1.65.9,4.24,4.24,0,0,1,.57,2.3,4.5,4.5,0,0,1-.65,2.55,2,2,0,0,1-1.73,1,2,2,0,0,1-1.67-.9A4,4,0,0,1,106,375.84Zm1.74-2.72a2.31,2.31,0,0,0-.62,1.13,5.49,5.49,0,0,0-.2,1.45,3.91,3.91,0,0,0,.44,1.95,1.32,1.32,0,0,0,1.16.8,1.23,1.23,0,0,0,.42-.07,2.31,2.31,0,0,0,.62-1.14,6,6,0,0,0,.2-1.51,4.17,4.17,0,0,0-.4-1.9,1.27,1.27,0,0,0-1.16-.78A1.51,1.51,0,0,0,107.74,373.12Z" fill="#fff"/></g><g opacity="0.65"><path d="M324.68,370.23h3.37V371h-4.31v-7.11h.94Z" fill="#fff"/></g><g opacity="0.65"><path d="M332.06,371.1a2.66,2.66,0,0,1-1-.19,2.46,2.46,0,0,1-.77-.53,2.35,2.35,0,0,1-.48-.81,2.82,2.82,0,0,1-.17-1v-.2a3.19,3.19,0,0,1,.19-1.15,2.69,2.69,0,0,1,.51-.86,2.24,2.24,0,0,1,.74-.53,2.19,2.19,0,0,1,.87-.18,2.24,2.24,0,0,1,1,.2,1.81,1.81,0,0,1,.68.54,2.23,2.23,0,0,1,.39.82,3.77,3.77,0,0,1,.13,1v.41h-3.58a2.16,2.16,0,0,0,.12.68,1.64,1.64,0,0,0,.31.55,1.48,1.48,0,0,0,.49.37,1.51,1.51,0,0,0,.65.14,1.67,1.67,0,0,0,.81-.19,2.19,2.19,0,0,0,.58-.52l.55.43a3.45,3.45,0,0,1-.31.38,2.21,2.21,0,0,1-1,.55A2.6,2.6,0,0,1,332.06,371.1Zm-.11-4.74a1.22,1.22,0,0,0-.51.1,1.46,1.46,0,0,0-.41.29,1.63,1.63,0,0,0-.3.48,2.29,2.29,0,0,0-.16.65h2.64v-.07a2,2,0,0,0-.08-.53,1.5,1.5,0,0,0-.22-.46,1.1,1.1,0,0,0-.38-.33A1.16,1.16,0,0,0,332,366.36Z" fill="#fff"/></g><g opacity="0.65"><path d="M336.5,371v-4.58h-.84v-.7h.84v-.56a2.19,2.19,0,0,1,.12-.75,1.5,1.5,0,0,1,.34-.56,1.46,1.46,0,0,1,.55-.34,2.33,2.33,0,0,1,.73-.11,2.2,2.2,0,0,1,.62.08l-.05.73-.23,0h-.26a.86.86,0,0,0-.68.26,1,1,0,0,0-.24.73v.56h1.13v.7H337.4V371Z" fill="#fff"/></g><g opacity="0.65"><path d="M341.64,364.44v1.28h1v.7h-1v3.27a1,1,0,0,0,.05.33.46.46,0,0,0,.13.19.37.37,0,0,0,.19.09l.21,0,.24,0,.19,0V371l-.27.06a1.85,1.85,0,0,1-.89,0,1,1,0,0,1-.39-.24,1.12,1.12,0,0,1-.26-.44,1.83,1.83,0,0,1-.1-.66v-3.27h-1v-.7h1v-1.28Z" fill="#fff"/></g><path d="M19.67,401.23h2.78V402H18.77v-7.11h.9Z" fill="#fff"/><path d="M26.18,402.1a2.58,2.58,0,0,1-.86-.14,1.71,1.71,0,0,1-.65-.44,2,2,0,0,1-.4-.73,3.34,3.34,0,0,1-.14-1.05v-.6a3.74,3.74,0,0,1,.16-1.18,2.24,2.24,0,0,1,.44-.78,1.62,1.62,0,0,1,.62-.43,2,2,0,0,1,.73-.13,2,2,0,0,1,.85.16,1.47,1.47,0,0,1,.57.48,2.3,2.3,0,0,1,.33.78,4.93,4.93,0,0,1,.1,1.07v.51H25v.12A1.91,1.91,0,0,0,25.3,401a1.14,1.14,0,0,0,.93.39,1.61,1.61,0,0,0,.39,0,1,1,0,0,0,.32-.13,1.31,1.31,0,0,0,.27-.19,1.75,1.75,0,0,0,.23-.24l.45.55a2.26,2.26,0,0,1-.26.29,1.64,1.64,0,0,1-.36.25,2.67,2.67,0,0,1-.48.18A2.32,2.32,0,0,1,26.18,402.1Zm-.1-4.74a1.16,1.16,0,0,0-.42.07.93.93,0,0,0-.33.24,1.29,1.29,0,0,0-.23.47,2.83,2.83,0,0,0-.11.74h2.08v-.12a3.29,3.29,0,0,0-.07-.57,1.21,1.21,0,0,0-.16-.44.81.81,0,0,0-.29-.29A1.09,1.09,0,0,0,26.08,397.36Z" fill="#fff"/><path d="M29.88,395.32a.6.6,0,0,1,.12-.38.45.45,0,0,1,.37-.15.44.44,0,0,1,.37.16.57.57,0,0,1,.12.37.56.56,0,0,1-.12.36.53.53,0,0,1-.74,0A.56.56,0,0,1,29.88,395.32Zm.91,6.68h-.86v-5.28h.86Z" fill="#fff"/><path d="M35.61,400.65a.59.59,0,0,0-.23-.5,2.49,2.49,0,0,0-.32-.22c-.12-.07-.28-.14-.47-.23s-.46-.2-.66-.3a2.59,2.59,0,0,1-.49-.32,1.31,1.31,0,0,1-.3-.41,1.35,1.35,0,0,1-.1-.55,1.45,1.45,0,0,1,.12-.59,1.32,1.32,0,0,1,.34-.47,1.38,1.38,0,0,1,.52-.32,1.92,1.92,0,0,1,.69-.12,2,2,0,0,1,.72.12,1.66,1.66,0,0,1,.54.34,1.72,1.72,0,0,1,.33.51,1.68,1.68,0,0,1,.12.63h-.86a.81.81,0,0,0-.06-.31.71.71,0,0,0-.16-.28.79.79,0,0,0-.27-.2,1,1,0,0,0-.36-.07,1,1,0,0,0-.37.06.67.67,0,0,0-.25.16.61.61,0,0,0-.15.24.77.77,0,0,0,0,.27.62.62,0,0,0,0,.25.43.43,0,0,0,.14.2,1.36,1.36,0,0,0,.28.18,4.06,4.06,0,0,0,.46.22c.27.1.5.21.71.31a2.36,2.36,0,0,1,.52.35,1.46,1.46,0,0,1,.32.43,1.35,1.35,0,0,1,.1.55,1.57,1.57,0,0,1-.12.63,1.3,1.3,0,0,1-.35.48,1.67,1.67,0,0,1-.56.3,2.35,2.35,0,0,1-1.51,0,1.8,1.8,0,0,1-.58-.37,1.73,1.73,0,0,1-.35-.54,1.68,1.68,0,0,1-.12-.63h.87a1.16,1.16,0,0,0,.1.46.85.85,0,0,0,.23.29,1,1,0,0,0,.31.15,1.37,1.37,0,0,0,.34,0,1,1,0,0,0,.65-.19A.65.65,0,0,0,35.61,400.65Z" fill="#fff"/><path d="M41.18,401.54a1.47,1.47,0,0,1-.51.41,1.72,1.72,0,0,1-.74.15,1.64,1.64,0,0,1-.6-.11,1.2,1.2,0,0,1-.46-.35,1.82,1.82,0,0,1-.29-.61,3.35,3.35,0,0,1-.11-.9v-3.41h.86v3.42a2,2,0,0,0,.07.59,1,1,0,0,0,.17.36.54.54,0,0,0,.24.19.85.85,0,0,0,.26.05,1.11,1.11,0,0,0,.69-.19,1.19,1.19,0,0,0,.4-.51v-3.91H42V402H41.2Z" fill="#fff"/><path d="M46.4,397.53l-.19,0H46a.84.84,0,0,0-.57.2,1.18,1.18,0,0,0-.35.53V402h-.87v-5.28h.84l0,.53a1.28,1.28,0,0,1,.4-.46,1,1,0,0,1,.58-.17h.19l.09,0,.06,0Z" fill="#fff"/><path d="M49.94,402.1a2.52,2.52,0,0,1-.85-.14,1.63,1.63,0,0,1-.65-.44,2,2,0,0,1-.41-.73,3.66,3.66,0,0,1-.14-1.05v-.6a3.72,3.72,0,0,1,.17-1.18,2.1,2.1,0,0,1,.44-.78,1.55,1.55,0,0,1,.62-.43,2,2,0,0,1,.73-.13,1.94,1.94,0,0,1,.84.16,1.43,1.43,0,0,1,.58.48,2.3,2.3,0,0,1,.33.78,4.93,4.93,0,0,1,.1,1.07v.51h-3v.12a1.91,1.91,0,0,0,.32,1.23,1.12,1.12,0,0,0,.92.39,1.64,1.64,0,0,0,.4,0,1.27,1.27,0,0,0,.32-.13A1.31,1.31,0,0,0,51,401a1.75,1.75,0,0,0,.23-.24l.45.55a3.4,3.4,0,0,1-.26.29,1.64,1.64,0,0,1-.36.25,2.67,2.67,0,0,1-.48.18A2.35,2.35,0,0,1,49.94,402.1Zm-.09-4.74a1.16,1.16,0,0,0-.42.07.78.78,0,0,0-.33.24,1.3,1.3,0,0,0-.24.47,3.39,3.39,0,0,0-.1.74h2.08v-.12a4.67,4.67,0,0,0-.07-.57,1.43,1.43,0,0,0-.16-.44.76.76,0,0,0-.3-.29A1,1,0,0,0,49.85,397.36Z" fill="#fff"/><g opacity="0.75"><path d="M22.88,415.28a1.7,1.7,0,0,1-.46,1.22,2.24,2.24,0,0,1-1.19.64v1.31H20.6V417.2a4.27,4.27,0,0,1-1.14-.2,2,2,0,0,1-.9-.49v-.35a7.81,7.81,0,0,1,.11-1.34h.54l.14,1.2a2.68,2.68,0,0,0,1.67.52l.34,0a1.07,1.07,0,0,0,.58-1,1.16,1.16,0,0,0-.7-1l-1.62-.84a1.77,1.77,0,0,1-1-1.54,1.51,1.51,0,0,1,.57-1.23,2.54,2.54,0,0,1,1.43-.56v-1.17h.62v1.16a6.28,6.28,0,0,1,1.36.3V411a7.9,7.9,0,0,1-.11,1.34h-.54l-.1-.91a2.2,2.2,0,0,0-1.37-.44L20,411a1,1,0,0,0-.48.91,1.1,1.1,0,0,0,.69,1l1.6.81A1.83,1.83,0,0,1,22.88,415.28Z" fill="#fff"/></g><g opacity="0.75"><path d="M28.06,416.52,28,417H24.63l-.06-.34a12.58,12.58,0,0,1,1.37-.42v-4.81l-1.22.58-.28-.45,1.92-1.26.47.25v5.8Z" fill="#fff"/></g><g opacity="0.75"><path d="M29.21,413.84a4.18,4.18,0,0,1,.69-2.48,2.07,2.07,0,0,1,1.78-1,1.84,1.84,0,0,1,1.66.9,4.33,4.33,0,0,1,.56,2.3,4.42,4.42,0,0,1-.65,2.55,2,2,0,0,1-3.4.06A4.06,4.06,0,0,1,29.21,413.84ZM31,411.12a2.3,2.3,0,0,0-.61,1.13,5.52,5.52,0,0,0-.21,1.45,3.91,3.91,0,0,0,.45,1.95,1.31,1.31,0,0,0,1.15.8,1.23,1.23,0,0,0,.42-.07,2.24,2.24,0,0,0,.63-1.14,6,6,0,0,0,.19-1.51,4,4,0,0,0-.4-1.9,1.25,1.25,0,0,0-1.16-.78A1.56,1.56,0,0,0,31,411.12Z" fill="#fff"/></g><g opacity="0.75"><path d="M35.74,413.84a4.18,4.18,0,0,1,.69-2.48,2.07,2.07,0,0,1,1.78-1,1.84,1.84,0,0,1,1.66.9,4.33,4.33,0,0,1,.56,2.3,4.42,4.42,0,0,1-.65,2.55,2,2,0,0,1-3.4.06A4.06,4.06,0,0,1,35.74,413.84Zm1.74-2.72a2.3,2.3,0,0,0-.61,1.13,5.52,5.52,0,0,0-.21,1.45,3.91,3.91,0,0,0,.45,1.95,1.31,1.31,0,0,0,1.15.8,1.23,1.23,0,0,0,.42-.07,2.24,2.24,0,0,0,.63-1.14,6,6,0,0,0,.19-1.51,4,4,0,0,0-.4-1.9,1.25,1.25,0,0,0-1.16-.78A1.56,1.56,0,0,0,37.48,411.12Z" fill="#fff"/></g><g opacity="0.75"><path d="M42.23,418.08a1.64,1.64,0,0,0,.68-1.08l-.52-.4a1,1,0,0,1,.61-.8,1,1,0,0,1,.52.36,1,1,0,0,1,.19.59,1.64,1.64,0,0,1-.31.93,2.31,2.31,0,0,1-.88.78Z" fill="#fff"/></g><g opacity="0.75"><path d="M45.6,413.84a4.18,4.18,0,0,1,.69-2.48,2.09,2.09,0,0,1,1.79-1,1.84,1.84,0,0,1,1.65.9,4.24,4.24,0,0,1,.56,2.3,4.5,4.5,0,0,1-.64,2.55,2,2,0,0,1-1.73,1,2,2,0,0,1-1.67-.9A4,4,0,0,1,45.6,413.84Zm1.75-2.72a2.31,2.31,0,0,0-.62,1.13,5.52,5.52,0,0,0-.21,1.45,3.91,3.91,0,0,0,.45,1.95,1.32,1.32,0,0,0,1.16.8,1.18,1.18,0,0,0,.41-.07,2.24,2.24,0,0,0,.63-1.14,6,6,0,0,0,.2-1.51,4,4,0,0,0-.41-1.9,1.24,1.24,0,0,0-1.15-.78A1.47,1.47,0,0,0,47.35,411.12Z" fill="#fff"/></g><g opacity="0.75"><path d="M52.14,413.84a4.18,4.18,0,0,1,.68-2.48,2.09,2.09,0,0,1,1.79-1,1.84,1.84,0,0,1,1.65.9,4.24,4.24,0,0,1,.57,2.3,4.5,4.5,0,0,1-.65,2.55,2,2,0,0,1-1.73,1,2,2,0,0,1-1.67-.9A4,4,0,0,1,52.14,413.84Zm1.74-2.72a2.31,2.31,0,0,0-.62,1.13,5.49,5.49,0,0,0-.2,1.45,3.91,3.91,0,0,0,.44,1.95,1.32,1.32,0,0,0,1.16.8,1.23,1.23,0,0,0,.42-.07,2.31,2.31,0,0,0,.62-1.14,6,6,0,0,0,.2-1.51,4.17,4.17,0,0,0-.4-1.9,1.27,1.27,0,0,0-1.16-.78A1.51,1.51,0,0,0,53.88,411.12Z" fill="#fff"/></g><g opacity="0.75"><path d="M65.15,409.93l.63.27-3.06,8.05-.64-.25Z" fill="#fff"/></g><g opacity="0.75"><path d="M75.09,415.28a1.7,1.7,0,0,1-.46,1.22,2.24,2.24,0,0,1-1.19.64v1.31h-.63V417.2a4.27,4.27,0,0,1-1.14-.2,2,2,0,0,1-.9-.49v-.35a7.81,7.81,0,0,1,.11-1.34h.54l.14,1.2a2.68,2.68,0,0,0,1.67.52l.34,0a1.07,1.07,0,0,0,.58-1,1.16,1.16,0,0,0-.7-1l-1.62-.84a1.77,1.77,0,0,1-1-1.54,1.51,1.51,0,0,1,.57-1.23,2.54,2.54,0,0,1,1.43-.56v-1.17h.62v1.16a6.28,6.28,0,0,1,1.36.3V411a7.9,7.9,0,0,1-.11,1.34h-.54l-.1-.91a2.2,2.2,0,0,0-1.37-.44l-.46,0a1,1,0,0,0-.48.91,1.1,1.1,0,0,0,.69,1l1.6.81A1.83,1.83,0,0,1,75.09,415.28Z" fill="#fff"/></g><g opacity="0.75"><path d="M81.28,415.35A9.43,9.43,0,0,1,81,417H77l-.18-.64,2.32-2.61a2.89,2.89,0,0,0,.85-1.7,1.12,1.12,0,0,0-.26-.72A1,1,0,0,0,79,411a3.8,3.8,0,0,0-1.12.19l-.18,1.25h-.57a6.56,6.56,0,0,1-.09-1.08v-.43a4,4,0,0,1,2.06-.63,2,2,0,0,1,1.36.5,1.64,1.64,0,0,1,.55,1.27,1.91,1.91,0,0,1-.22.88,8.73,8.73,0,0,1-1.08,1.41L78,416.21l0,.09,2.44-.14.32-.89Z" fill="#fff"/></g><g opacity="0.75"><path d="M82.8,413.84a4.18,4.18,0,0,1,.69-2.48,2.07,2.07,0,0,1,1.78-1,1.84,1.84,0,0,1,1.66.9,4.33,4.33,0,0,1,.56,2.3,4.5,4.5,0,0,1-.65,2.55,2,2,0,0,1-3.4.06A4.06,4.06,0,0,1,82.8,413.84Zm1.74-2.72a2.3,2.3,0,0,0-.61,1.13,5.52,5.52,0,0,0-.21,1.45,3.91,3.91,0,0,0,.45,1.95,1.31,1.31,0,0,0,1.15.8,1.23,1.23,0,0,0,.42-.07,2.24,2.24,0,0,0,.63-1.14,6,6,0,0,0,.19-1.51,4,4,0,0,0-.4-1.9,1.25,1.25,0,0,0-1.16-.78A1.51,1.51,0,0,0,84.54,411.12Z" fill="#fff"/></g><g opacity="0.75"><path d="M89.33,413.84a4.18,4.18,0,0,1,.69-2.48,2.07,2.07,0,0,1,1.78-1,1.84,1.84,0,0,1,1.66.9,4.33,4.33,0,0,1,.56,2.3,4.42,4.42,0,0,1-.65,2.55,2,2,0,0,1-3.4.06A4.06,4.06,0,0,1,89.33,413.84Zm1.74-2.72a2.3,2.3,0,0,0-.61,1.13,5.52,5.52,0,0,0-.21,1.45,3.91,3.91,0,0,0,.45,1.95,1.31,1.31,0,0,0,1.15.8,1.23,1.23,0,0,0,.42-.07,2.24,2.24,0,0,0,.63-1.14,6,6,0,0,0,.19-1.51,4,4,0,0,0-.4-1.9,1.25,1.25,0,0,0-1.16-.78A1.56,1.56,0,0,0,91.07,411.12Z" fill="#fff"/></g><g opacity="0.75"><path d="M95.82,418.08A1.64,1.64,0,0,0,96.5,417l-.52-.4a1,1,0,0,1,.61-.8,1,1,0,0,1,.52.36,1,1,0,0,1,.19.59,1.64,1.64,0,0,1-.31.93,2.31,2.31,0,0,1-.88.78Z" fill="#fff"/></g><g opacity="0.75"><path d="M99.19,413.84a4.18,4.18,0,0,1,.69-2.48,2.09,2.09,0,0,1,1.79-1,1.84,1.84,0,0,1,1.65.9,4.24,4.24,0,0,1,.56,2.3,4.42,4.42,0,0,1-.65,2.55,2,2,0,0,1-3.4.06A4.06,4.06,0,0,1,99.19,413.84Zm1.75-2.72a2.31,2.31,0,0,0-.62,1.13,5.52,5.52,0,0,0-.21,1.45,3.91,3.91,0,0,0,.45,1.95,1.32,1.32,0,0,0,1.15.8,1.23,1.23,0,0,0,.42-.07,2.24,2.24,0,0,0,.63-1.14,6,6,0,0,0,.2-1.51,4,4,0,0,0-.41-1.9,1.24,1.24,0,0,0-1.15-.78A1.47,1.47,0,0,0,100.94,411.12Z" fill="#fff"/></g><g opacity="0.75"><path d="M105.73,413.84a4.18,4.18,0,0,1,.68-2.48,2.09,2.09,0,0,1,1.79-1,1.84,1.84,0,0,1,1.65.9,4.24,4.24,0,0,1,.57,2.3,4.5,4.5,0,0,1-.65,2.55,2,2,0,0,1-1.73,1,2,2,0,0,1-1.67-.9A4,4,0,0,1,105.73,413.84Zm1.74-2.72a2.31,2.31,0,0,0-.62,1.13,5.49,5.49,0,0,0-.2,1.45,3.91,3.91,0,0,0,.44,1.95,1.32,1.32,0,0,0,1.16.8,1.23,1.23,0,0,0,.42-.07,2.31,2.31,0,0,0,.62-1.14,6,6,0,0,0,.2-1.51,4.17,4.17,0,0,0-.4-1.9,1.27,1.27,0,0,0-1.16-.78A1.51,1.51,0,0,0,107.47,411.12Z" fill="#fff"/></g><path d="M271.22,368.28a1.7,1.7,0,0,1-.46,1.22,2.2,2.2,0,0,1-1.19.64v1.31h-.63V370.2a4.42,4.42,0,0,1-1.14-.2,2,2,0,0,1-.9-.49v-.35a7.81,7.81,0,0,1,.11-1.34h.54l.14,1.2a2.68,2.68,0,0,0,1.67.52l.34,0a1.07,1.07,0,0,0,.58-1,1.16,1.16,0,0,0-.7-1l-1.62-.84a1.77,1.77,0,0,1-1-1.54,1.52,1.52,0,0,1,.58-1.23,2.51,2.51,0,0,1,1.42-.56v-1.17h.62v1.16a6.16,6.16,0,0,1,1.36.3V364a7,7,0,0,1-.11,1.34h-.54l-.1-.91a2.18,2.18,0,0,0-1.37-.44l-.46,0a1,1,0,0,0-.48.91,1.1,1.1,0,0,0,.69,1l1.6.81A1.83,1.83,0,0,1,271.22,368.28Z" fill="#fff"/><path d="M275.79,366.46a1.89,1.89,0,0,1,1.07.67,1.78,1.78,0,0,1,.43,1.17,1.72,1.72,0,0,1-.61,1.36,2.45,2.45,0,0,1-1.62.53,4.2,4.2,0,0,1-1.93-.47l.18-.9a4.8,4.8,0,0,0,2.15.55,2.49,2.49,0,0,0,.57-.06,1.33,1.33,0,0,0,.36-.92,1.17,1.17,0,0,0-.43-.92,1.78,1.78,0,0,0-1.22-.37l-.71,0,0-.68h.17a2,2,0,0,0,1.38-.44,1.22,1.22,0,0,0,.45-.95,1.08,1.08,0,0,0-.34-.81,1.31,1.31,0,0,0-.93-.32,2.6,2.6,0,0,0-.7.11l-.17,1.1h-.58a4.71,4.71,0,0,1-.09-.91v-.38a3.09,3.09,0,0,1,1.83-.54,2.11,2.11,0,0,1,1.38.46,1.49,1.49,0,0,1,.54,1.16,1.52,1.52,0,0,1-.3.9A1.83,1.83,0,0,1,275.79,366.46Z" fill="#fff"/><path d="M278.9,366.84a4.25,4.25,0,0,1,.68-2.48,2.09,2.09,0,0,1,1.79-1,1.84,1.84,0,0,1,1.65.9,4.24,4.24,0,0,1,.57,2.3,4.5,4.5,0,0,1-.65,2.55,2,2,0,0,1-1.73,1,2,2,0,0,1-1.67-.9A4,4,0,0,1,278.9,366.84Zm1.74-2.72a2.31,2.31,0,0,0-.62,1.13,5.49,5.49,0,0,0-.2,1.45,3.91,3.91,0,0,0,.44,1.95,1.32,1.32,0,0,0,1.16.8,1.23,1.23,0,0,0,.42-.07,2.31,2.31,0,0,0,.62-1.14,6,6,0,0,0,.2-1.51,4.17,4.17,0,0,0-.4-1.9,1.27,1.27,0,0,0-1.16-.78A1.51,1.51,0,0,0,280.64,364.12Z" fill="#fff"/><path d="M285.43,366.84a4.25,4.25,0,0,1,.68-2.48,2.09,2.09,0,0,1,1.79-1,1.83,1.83,0,0,1,1.65.9,4.24,4.24,0,0,1,.57,2.3,4.5,4.5,0,0,1-.65,2.55,2,2,0,0,1-1.73,1,2,2,0,0,1-1.67-.9A4,4,0,0,1,285.43,366.84Zm1.74-2.72a2.31,2.31,0,0,0-.62,1.13,5.94,5.94,0,0,0-.2,1.45,4,4,0,0,0,.44,1.95,1.32,1.32,0,0,0,1.16.8,1.23,1.23,0,0,0,.42-.07,2.31,2.31,0,0,0,.62-1.14,6,6,0,0,0,.2-1.51,4.17,4.17,0,0,0-.4-1.9,1.27,1.27,0,0,0-1.16-.78A1.51,1.51,0,0,0,287.17,364.12Z" fill="#fff"/><path d="M291.92,371.08a1.68,1.68,0,0,0,.68-1.08l-.52-.4a1,1,0,0,1,.61-.8,1,1,0,0,1,.52.36,1,1,0,0,1,.19.59,1.66,1.66,0,0,1-.32.93,2.36,2.36,0,0,1-.87.78Z" fill="#fff"/><path d="M295.29,366.84a4.25,4.25,0,0,1,.68-2.48,2.1,2.1,0,0,1,1.79-1,1.82,1.82,0,0,1,1.65.9,4.24,4.24,0,0,1,.57,2.3,4.5,4.5,0,0,1-.65,2.55,2,2,0,0,1-1.73,1,2,2,0,0,1-1.67-.9A4,4,0,0,1,295.29,366.84Zm1.74-2.72a2.39,2.39,0,0,0-.62,1.13,5.94,5.94,0,0,0-.2,1.45,4,4,0,0,0,.44,1.95,1.33,1.33,0,0,0,1.16.8,1.23,1.23,0,0,0,.42-.07,2.23,2.23,0,0,0,.62-1.14,6,6,0,0,0,.2-1.51,4,4,0,0,0-.4-1.9,1.26,1.26,0,0,0-1.16-.78A1.51,1.51,0,0,0,297,364.12Z" fill="#fff"/><path d="M301.82,366.84a4.25,4.25,0,0,1,.68-2.48,2.1,2.1,0,0,1,1.79-1,1.84,1.84,0,0,1,1.66.9,4.33,4.33,0,0,1,.56,2.3,4.5,4.5,0,0,1-.65,2.55,2,2,0,0,1-1.73,1,2,2,0,0,1-1.67-.9A4,4,0,0,1,301.82,366.84Zm1.74-2.72a2.3,2.3,0,0,0-.61,1.13,5.52,5.52,0,0,0-.21,1.45,3.91,3.91,0,0,0,.45,1.95,1.31,1.31,0,0,0,1.15.8,1.23,1.23,0,0,0,.42-.07,2.23,2.23,0,0,0,.62-1.14,6,6,0,0,0,.2-1.51,4,4,0,0,0-.4-1.9,1.26,1.26,0,0,0-1.16-.78A1.51,1.51,0,0,0,303.56,364.12Z" fill="#fff"/><g opacity="0.65"><path d="M323.68,408.23h3.37V409h-4.31v-7.11h.94Z" fill="#fff"/></g><g opacity="0.65"><path d="M331.06,409.1a2.66,2.66,0,0,1-1-.19,2.46,2.46,0,0,1-.77-.53,2.35,2.35,0,0,1-.48-.81,2.82,2.82,0,0,1-.17-1v-.2a3.19,3.19,0,0,1,.19-1.15,2.69,2.69,0,0,1,.51-.86,2.24,2.24,0,0,1,.74-.53,2.19,2.19,0,0,1,.87-.18,2.24,2.24,0,0,1,1,.2,1.81,1.81,0,0,1,.68.54,2.23,2.23,0,0,1,.39.82,3.77,3.77,0,0,1,.13,1v.41h-3.58a2.16,2.16,0,0,0,.12.68,1.64,1.64,0,0,0,.31.55,1.48,1.48,0,0,0,.49.37,1.51,1.51,0,0,0,.65.14,1.67,1.67,0,0,0,.81-.19,2.19,2.19,0,0,0,.58-.52l.55.43a3.45,3.45,0,0,1-.31.38,2.21,2.21,0,0,1-1,.55A2.6,2.6,0,0,1,331.06,409.1Zm-.11-4.74a1.22,1.22,0,0,0-.51.1,1.46,1.46,0,0,0-.41.29,1.63,1.63,0,0,0-.3.48,2.29,2.29,0,0,0-.16.65h2.64v-.07a2,2,0,0,0-.08-.53,1.5,1.5,0,0,0-.22-.46,1.1,1.1,0,0,0-.38-.33A1.16,1.16,0,0,0,331,404.36Z" fill="#fff"/></g><g opacity="0.65"><path d="M335.5,409v-4.58h-.84v-.7h.84v-.56a2.19,2.19,0,0,1,.12-.75,1.5,1.5,0,0,1,.34-.56,1.46,1.46,0,0,1,.55-.34,2.33,2.33,0,0,1,.73-.11,2.2,2.2,0,0,1,.62.08l-.05.73-.23,0h-.26a.86.86,0,0,0-.68.26,1,1,0,0,0-.24.73v.56h1.13v.7H336.4V409Z" fill="#fff"/></g><g opacity="0.65"><path d="M340.64,402.44v1.28h1v.7h-1v3.27a1,1,0,0,0,.05.33.46.46,0,0,0,.13.19.37.37,0,0,0,.19.09l.21,0,.24,0,.19,0V409l-.27.06a1.85,1.85,0,0,1-.89,0,1,1,0,0,1-.39-.24,1.12,1.12,0,0,1-.26-.44,1.83,1.83,0,0,1-.1-.66v-3.27h-1v-.7h1v-1.28Z" fill="#fff"/></g><path d="M271.56,406.28a1.7,1.7,0,0,1-.46,1.22,2.2,2.2,0,0,1-1.19.64v1.31h-.63V408.2a4.42,4.42,0,0,1-1.14-.2,2,2,0,0,1-.9-.49v-.35a7.81,7.81,0,0,1,.11-1.34h.54L268,407a2.68,2.68,0,0,0,1.67.52l.34,0a1.07,1.07,0,0,0,.58-1,1.16,1.16,0,0,0-.7-1l-1.62-.84a1.77,1.77,0,0,1-1-1.54,1.52,1.52,0,0,1,.58-1.23,2.51,2.51,0,0,1,1.42-.56v-1.17h.62v1.16a6.16,6.16,0,0,1,1.36.3V402a7,7,0,0,1-.11,1.34h-.54l-.1-.91a2.18,2.18,0,0,0-1.37-.44l-.46,0a1,1,0,0,0-.48.91,1.1,1.1,0,0,0,.69,1l1.6.81A1.83,1.83,0,0,1,271.56,406.28Z" fill="#fff"/><path d="M276.75,407.52l-.06.48h-3.38l-.06-.34a12.09,12.09,0,0,1,1.38-.42v-4.81l-1.23.58-.27-.45L275,401.3l.48.25v5.8Z" fill="#fff"/><path d="M277.9,404.84a4.25,4.25,0,0,1,.68-2.48,2.09,2.09,0,0,1,1.79-1,1.84,1.84,0,0,1,1.65.9,4.24,4.24,0,0,1,.57,2.3,4.5,4.5,0,0,1-.65,2.55,2,2,0,0,1-1.73,1,2,2,0,0,1-1.67-.9A4,4,0,0,1,277.9,404.84Zm1.74-2.72a2.31,2.31,0,0,0-.62,1.13,5.49,5.49,0,0,0-.2,1.45,3.91,3.91,0,0,0,.44,1.95,1.32,1.32,0,0,0,1.16.8,1.23,1.23,0,0,0,.42-.07,2.31,2.31,0,0,0,.62-1.14,6,6,0,0,0,.2-1.51,4.17,4.17,0,0,0-.4-1.9,1.27,1.27,0,0,0-1.16-.78A1.51,1.51,0,0,0,279.64,402.12Z" fill="#fff"/><path d="M284.43,404.84a4.25,4.25,0,0,1,.68-2.48,2.09,2.09,0,0,1,1.79-1,1.83,1.83,0,0,1,1.65.9,4.24,4.24,0,0,1,.57,2.3,4.5,4.5,0,0,1-.65,2.55,2,2,0,0,1-1.73,1,2,2,0,0,1-1.67-.9A4,4,0,0,1,284.43,404.84Zm1.74-2.72a2.31,2.31,0,0,0-.62,1.13,5.94,5.94,0,0,0-.2,1.45,4,4,0,0,0,.44,1.95,1.32,1.32,0,0,0,1.16.8,1.23,1.23,0,0,0,.42-.07,2.31,2.31,0,0,0,.62-1.14,6,6,0,0,0,.2-1.51,4.17,4.17,0,0,0-.4-1.9,1.27,1.27,0,0,0-1.16-.78A1.51,1.51,0,0,0,286.17,402.12Z" fill="#fff"/><path d="M290.92,409.08a1.68,1.68,0,0,0,.68-1.08l-.52-.4a1,1,0,0,1,.61-.8,1,1,0,0,1,.52.36,1,1,0,0,1,.19.59,1.66,1.66,0,0,1-.32.93,2.36,2.36,0,0,1-.87.78Z" fill="#fff"/><path d="M294.29,404.84a4.25,4.25,0,0,1,.68-2.48,2.1,2.1,0,0,1,1.79-1,1.82,1.82,0,0,1,1.65.9,4.24,4.24,0,0,1,.57,2.3,4.5,4.5,0,0,1-.65,2.55,2,2,0,0,1-1.73,1,2,2,0,0,1-1.67-.9A4,4,0,0,1,294.29,404.84Zm1.74-2.72a2.39,2.39,0,0,0-.62,1.13,5.94,5.94,0,0,0-.2,1.45,4,4,0,0,0,.44,1.95,1.33,1.33,0,0,0,1.16.8,1.23,1.23,0,0,0,.42-.07,2.23,2.23,0,0,0,.62-1.14,6,6,0,0,0,.2-1.51,4,4,0,0,0-.4-1.9,1.26,1.26,0,0,0-1.16-.78A1.51,1.51,0,0,0,296,402.12Z" fill="#fff"/><path d="M300.82,404.84a4.25,4.25,0,0,1,.68-2.48,2.1,2.1,0,0,1,1.79-1,1.84,1.84,0,0,1,1.66.9,4.33,4.33,0,0,1,.56,2.3,4.5,4.5,0,0,1-.65,2.55,2,2,0,0,1-1.73,1,2,2,0,0,1-1.67-.9A4,4,0,0,1,300.82,404.84Zm1.74-2.72a2.3,2.3,0,0,0-.61,1.13,5.52,5.52,0,0,0-.21,1.45,3.91,3.91,0,0,0,.45,1.95,1.31,1.31,0,0,0,1.15.8,1.23,1.23,0,0,0,.42-.07,2.23,2.23,0,0,0,.62-1.14,6,6,0,0,0,.2-1.51,4,4,0,0,0-.4-1.9,1.26,1.26,0,0,0-1.16-.78A1.51,1.51,0,0,0,302.56,402.12Z" fill="#fff"/><path d="M134.07,290.93a107.5,107.5,0,1,1,144.86-56.56c-.59,1.43-1.27,3-2,4.56" fill="none" stroke="#90caf9" stroke-width="6"/><path d="M274.42,244c-21.42,40.28-73.65,72.42-135.17,49.1" fill="none" stroke="#bbdefb" stroke-width="6"/><line x1="9.5" y1="354.5" x2="9.5" y2="382.5" fill="none" stroke="#90caf9" stroke-width="2.5"/><line x1="9.5" y1="392.5" x2="9.5" y2="420.5" fill="none" stroke="#bbdefb" stroke-width="2.5"/></g></svg>