<svg xmlns="http://www.w3.org/2000/svg" xmlns:xlink="http://www.w3.org/1999/xlink" viewBox="0 0 360 431"><defs><clipPath id="a"><rect width="360" height="431" fill="none"/></clipPath><clipPath id="b"><rect y="24" width="360" height="48" fill="none"/></clipPath></defs><title>Dues</title><rect width="360" height="431" fill="#33333d"/><g clip-path="url(#a)"><rect width="360" height="24" fill="#27272f"/><path d="M307,7h10V17H307Zm40,10L341,7h12ZM330,7a5,5,0,1,1-5,5A5,5,0,0,1,330,7Z" fill="#bababa" fill-rule="evenodd"/></g><g clip-path="url(#b)"><g style="isolation:isolate"><g clip-path="url(#b)"><rect y="71" width="360" height="1" opacity="0.1"/><path d="M94.17,52v-10h2.38a4,4,0,0,1,1.51.26,3.11,3.11,0,0,1,1.16.79,3.7,3.7,0,0,1,.74,1.29,5.79,5.79,0,0,1,.26,1.8v1.68a5.68,5.68,0,0,1-.26,1.79A3.41,3.41,0,0,1,99.21,51a3.07,3.07,0,0,1-1.19.79,4.65,4.65,0,0,1-1.59.26Zm1.25-8.87v7.8h1a2.31,2.31,0,0,0,1.94-.78A3.59,3.59,0,0,0,99,47.87v-1.7a3.57,3.57,0,0,0-.61-2.31,2.21,2.21,0,0,0-1.82-.73Z" fill="#fff"/><path d="M109.35,42.05v7a3.58,3.58,0,0,1-.26,1.43,2.67,2.67,0,0,1-.67.95,2.6,2.6,0,0,1-1,.53,4.07,4.07,0,0,1-1.16.17,4.19,4.19,0,0,1-1.2-.17,2.42,2.42,0,0,1-1-.53,2.63,2.63,0,0,1-.65-.95,4,4,0,0,1-.23-1.43v-7h1.24v7a3.3,3.3,0,0,0,.13,1,1.58,1.58,0,0,0,.37.62,1.25,1.25,0,0,0,.56.32,2.52,2.52,0,0,0,.75.1A2.45,2.45,0,0,0,107,51a1.28,1.28,0,0,0,.57-.32A1.58,1.58,0,0,0,108,50a3.3,3.3,0,0,0,.13-1v-7Z" fill="#fff"/><path d="M117.29,47.4h-3.52v3.53h4.1V52h-5.35v-10h5.28v1.08h-4v3.2h3.52Z" fill="#fff"/><path d="M125.07,49.48a2.25,2.25,0,0,0-.08-.61,1.18,1.18,0,0,0-.29-.49,2.12,2.12,0,0,0-.58-.42,7.34,7.34,0,0,0-.93-.4,7.7,7.7,0,0,1-1.12-.48,4,4,0,0,1-.85-.62,2.69,2.69,0,0,1-.54-.8,2.61,2.61,0,0,1-.19-1,2.91,2.91,0,0,1,.2-1.07,2.54,2.54,0,0,1,.57-.86,2.43,2.43,0,0,1,.91-.57,3.14,3.14,0,0,1,1.18-.21,3,3,0,0,1,1.28.25,2.78,2.78,0,0,1,.93.67,2.57,2.57,0,0,1,.57,1,3.31,3.31,0,0,1,.2,1.12h-1.26a3.18,3.18,0,0,0-.1-.77,1.76,1.76,0,0,0-.31-.61,1.39,1.39,0,0,0-.54-.41,2,2,0,0,0-.77-.14,1.94,1.94,0,0,0-.72.12,1.52,1.52,0,0,0-.5.34,1.51,1.51,0,0,0-.29.51,2.2,2.2,0,0,0-.09.64,1.41,1.41,0,0,0,.45,1.06,4.17,4.17,0,0,0,1.4.76,6,6,0,0,1,1.24.53,3.23,3.23,0,0,1,.85.65,2.43,2.43,0,0,1,.49.83,3.35,3.35,0,0,1,.15,1,3,3,0,0,1-.2,1.1,2.29,2.29,0,0,1-.59.84,2.7,2.7,0,0,1-.92.54,3.79,3.79,0,0,1-2.37,0,3.19,3.19,0,0,1-1-.57,2.83,2.83,0,0,1-1-2.26h1.26a2.26,2.26,0,0,0,.15.87,1.56,1.56,0,0,0,.41.61,1.62,1.62,0,0,0,.61.35,2.27,2.27,0,0,0,.75.11,1.68,1.68,0,0,0,1.24-.42A1.57,1.57,0,0,0,125.07,49.48Z" fill="#fff"/></g></g></g><g clip-path="url(#a)"><path d="M49.33,40.06l-1.27,1.27,3.44,3.44c0,2.08,1.56,3.21,3.91,3.91l3.51,3.51a2.77,2.77,0,0,1-2.42.91c-2.06,0-2.87-.92-3-2.1h-2.2c.12,2.19,1.76,3.42,3.68,3.83V57h3V54.85a5,5,0,0,0,2.45-1.12L62.67,56l1.27-1.27ZM56.5,42.9c1.78,0,2.44.85,2.5,2.1h2.21A4,4,0,0,0,58,41.19V39H55v2.16a5.93,5.93,0,0,0-1.48.54L55,43.17a3.92,3.92,0,0,1,1.51-.27Z" fill="#fff"/><path d="M180,87c59.09,0,107,53.5,107,107S239.09,301,180,301a107,107,0,0,1,0-214Zm0,5a103.16,103.16,0,0,0-20.56,2.07,102,102,0,0,0-79.37,79.37,103.14,103.14,0,0,0,0,41.12,102,102,0,0,0,79.37,79.37A103.16,103.16,0,0,0,180,296a93.68,93.68,0,0,0,20.47-2.28,97.92,97.92,0,0,0,19.1-6.46,104.82,104.82,0,0,0,17.34-10.07,110.62,110.62,0,0,0,15.15-13.1,112,112,0,0,0,12.51-15.5A108.78,108.78,0,0,0,274,231.31a99.67,99.67,0,0,0,5.94-18.41,87.73,87.73,0,0,0,0-37.8A99.67,99.67,0,0,0,274,156.69a108.78,108.78,0,0,0-9.43-17.28,112,112,0,0,0-12.51-15.5,110.62,110.62,0,0,0-15.15-13.1,104.82,104.82,0,0,0-17.34-10.07,97.92,97.92,0,0,0-19.1-6.46A93.68,93.68,0,0,0,180,92" fill="#ffcf44"/><line x1="180.5" y1="295.5" x2="180.5" y2="301.5" fill="none" stroke="#33333d" stroke-width="5"/><path d="M150.86,195.75a4.13,4.13,0,0,1-1.17,3,5.69,5.69,0,0,1-3,1.59v3.14h-2v-3A11.27,11.27,0,0,1,142,200a6.31,6.31,0,0,1-2.19-1.09l0-.07,0-.84a17,17,0,0,1,.31-3.34h1.52l.76,3.17a6.83,6.83,0,0,0,3.6.91l.53,0a2.31,2.31,0,0,0,1.35-2.23,2.68,2.68,0,0,0-1.64-2.28l-3.79-1.95a4.43,4.43,0,0,1-2.57-3.86,3.82,3.82,0,0,1,1.35-3,6.19,6.19,0,0,1,3.45-1.44v-2.74h2v2.71a16.13,16.13,0,0,1,3.46.75,17.32,17.32,0,0,1-.31,4.24h-1.61l-.46-2.49a6.09,6.09,0,0,0-3.17-.79l-.72,0a2.26,2.26,0,0,0-1.12,2.06c0,.85.57,1.58,1.72,2.19l3.6,1.77Q150.86,193.18,150.86,195.75Z" fill="#fff"/><path d="M162.33,191.6a9.28,9.28,0,0,1,2.46,1.93,3.66,3.66,0,0,1,.88,2.49,4,4,0,0,1-1.53,3.22,6.78,6.78,0,0,1-7.76.08,3.72,3.72,0,0,1-1.49-3c0-1.77,1.07-3.17,3.19-4.2q-2.78-1.6-2.78-4a3.67,3.67,0,0,1,1.42-3,5.57,5.57,0,0,1,3.64-1.16,5.48,5.48,0,0,1,3.44,1,3.27,3.27,0,0,1,1.34,2.68Q165.14,190,162.33,191.6Zm-.07,7a4.1,4.1,0,0,0,.67-2,2.67,2.67,0,0,0-.77-1.87,9.33,9.33,0,0,0-2.47-1.76,3.91,3.91,0,0,0-1.4,1.43,3.61,3.61,0,0,0-.49,1.79,2.73,2.73,0,0,0,.72,1.93,2.6,2.6,0,0,0,2,.78A5.42,5.42,0,0,0,162.26,198.56Zm-3.55-12.72a2.88,2.88,0,0,0-.77,1.85,2.14,2.14,0,0,0,.76,1.68,10.94,10.94,0,0,0,2.22,1.44,3.52,3.52,0,0,0,1.77-2.86,2.39,2.39,0,0,0-.69-1.74,2.44,2.44,0,0,0-1.8-.71A4,4,0,0,0,158.71,185.84Z" fill="#fff"/><path d="M179,195.94v2.6l1.9.26-.12,1.2h-7.13l-.14-.82a17.09,17.09,0,0,1,2.73-1v-2.28h-6.58l-.64-1.65,7.7-10.37,1.8.29,0,.07.5-.07v9.72l2.71-.07.05,1.44-.7.64ZM176.23,194v-4.94l.24-2.07-4.68,7.13Z" fill="#fff"/><path d="M185.67,202.45a3.92,3.92,0,0,0,1.63-2.62l-1.25-1a2.88,2.88,0,0,1,1.68-2.18,2.48,2.48,0,0,1,1.92,2.5,4,4,0,0,1-.88,2.38,6.45,6.45,0,0,1-2.29,2Z" fill="#fff"/><path d="M201.2,193.83a7.21,7.21,0,0,1-2.36.43,4.8,4.8,0,0,1-3.61-1.48,5.17,5.17,0,0,1-1.43-3.7,4.88,4.88,0,0,1,1.55-3.71,5.41,5.41,0,0,1,3.85-1.45,5.16,5.16,0,0,1,4.23,2A7.82,7.82,0,0,1,205,191a9,9,0,0,1-9.33,9.27l-.48-3.1,4.08.5a5.41,5.41,0,0,0,2.2-2.68,10.29,10.29,0,0,0,.7-3.87,8.59,8.59,0,0,0-.78-3.86,2.5,2.5,0,0,0-2.34-1.56l-.82.12a2.66,2.66,0,0,0-1.11,1.28,4.45,4.45,0,0,0-.4,1.89,3.56,3.56,0,0,0,.88,2.47,2.91,2.91,0,0,0,2.27,1,4.21,4.21,0,0,0,1.05-.14Z" fill="#fff"/><path d="M208.54,192.34a9.64,9.64,0,0,1,1.74-5.91,5.33,5.33,0,0,1,4.45-2.34,4.93,4.93,0,0,1,4.18,2.12,9.4,9.4,0,0,1,1.56,5.68,10.35,10.35,0,0,1-1.63,6.07,5.25,5.25,0,0,1-8.65.11A9.36,9.36,0,0,1,208.54,192.34ZM213.2,186a5.42,5.42,0,0,0-1.31,2.61,13.61,13.61,0,0,0-.44,3.39,10,10,0,0,0,1,4.59,2.85,2.85,0,0,0,2.49,1.87,2.47,2.47,0,0,0,.89-.17,5.17,5.17,0,0,0,1.33-2.58,14.74,14.74,0,0,0,.42-3.52,10.51,10.51,0,0,0-.86-4.47,2.73,2.73,0,0,0-2.52-1.84A3.71,3.71,0,0,0,213.2,186Z" fill="#fff"/><path d="M23.22,361.74a3.29,3.29,0,0,1-.18,1,2,2,0,0,1-.44.74,1.84,1.84,0,0,1-.7.47,2.81,2.81,0,0,1-1,.16,2.15,2.15,0,0,1-1-.21,2,2,0,0,1-.73-.6,2.73,2.73,0,0,1-.47-1,4.29,4.29,0,0,1-.16-1.24v-1.31a4.33,4.33,0,0,1,.16-1.24,2.86,2.86,0,0,1,.47-.94A2.11,2.11,0,0,1,20,357a2.25,2.25,0,0,1,1-.22,2.35,2.35,0,0,1,.91.16,1.78,1.78,0,0,1,.68.46,2.11,2.11,0,0,1,.43.75,3.1,3.1,0,0,1,.18,1h-.9a4.52,4.52,0,0,0-.11-.73A1.55,1.55,0,0,0,22,358a.87.87,0,0,0-.39-.29,1.56,1.56,0,0,0-.56-.1,1.45,1.45,0,0,0-.68.16,1.32,1.32,0,0,0-.46.45,1.94,1.94,0,0,0-.28.7,4.25,4.25,0,0,0-.09.91v1.32a4.83,4.83,0,0,0,.07.88,2.48,2.48,0,0,0,.25.71,1.25,1.25,0,0,0,.44.47,1.16,1.16,0,0,0,.66.18,1.85,1.85,0,0,0,.62-.09A.88.88,0,0,0,22,363a1.18,1.18,0,0,0,.24-.49,3.36,3.36,0,0,0,.12-.73Z" fill="#fff"/><path d="M25,361.11a3.51,3.51,0,0,1,.16-1.08,2.27,2.27,0,0,1,.44-.78,1.72,1.72,0,0,1,.64-.47,2.11,2.11,0,0,1,1.61,0,1.75,1.75,0,0,1,.65.47A2.25,2.25,0,0,1,29,360a3.23,3.23,0,0,1,.16,1.08v.5a3.23,3.23,0,0,1-.16,1.08,2.25,2.25,0,0,1-.43.78,1.75,1.75,0,0,1-.65.47,2.08,2.08,0,0,1-1.6,0,1.67,1.67,0,0,1-.65-.47,2.27,2.27,0,0,1-.44-.78,3.51,3.51,0,0,1-.16-1.08Zm.87.5a2.91,2.91,0,0,0,.09.77,1.5,1.5,0,0,0,.25.54,1,1,0,0,0,.37.33,1,1,0,0,0,.47.11c.78,0,1.18-.58,1.18-1.75v-.5a2.88,2.88,0,0,0-.09-.76,1.69,1.69,0,0,0-.25-.54,1.11,1.11,0,0,0-.38-.34,1,1,0,0,0-.47-.11,1,1,0,0,0-.83.45,1.5,1.5,0,0,0-.25.54,2.88,2.88,0,0,0-.09.76Z" fill="#fff"/><path d="M31.93,358.72l0,.57a1.67,1.67,0,0,1,.56-.5,1.59,1.59,0,0,1,.72-.17,1.63,1.63,0,0,1,.59.1,1.12,1.12,0,0,1,.44.34,1.6,1.6,0,0,1,.29.6,3.18,3.18,0,0,1,.1.88V364H33.8v-3.47a1.42,1.42,0,0,0-.21-.88.71.71,0,0,0-.62-.26.9.9,0,0,0-.58.21,1.48,1.48,0,0,0-.41.56V364h-.86v-5.28Z" fill="#fff"/><path d="M38.68,363.36a1,1,0,0,0,.36-.06.75.75,0,0,0,.3-.18,1,1,0,0,0,.22-.32,1.51,1.51,0,0,0,.09-.47h.82a1.82,1.82,0,0,1-.17.72,1.61,1.61,0,0,1-.39.56,1.5,1.5,0,0,1-.56.36,1.67,1.67,0,0,1-.67.13,2.21,2.21,0,0,1-.89-.17,1.66,1.66,0,0,1-.63-.48,2.08,2.08,0,0,1-.37-.76,4.1,4.1,0,0,1-.12-1v-.6a4,4,0,0,1,.12-1,2.16,2.16,0,0,1,.37-.76,1.66,1.66,0,0,1,.63-.48,2,2,0,0,1,.89-.17,1.88,1.88,0,0,1,.72.13,1.43,1.43,0,0,1,.56.38,1.78,1.78,0,0,1,.36.6,2.42,2.42,0,0,1,.15.8h-.82a1.44,1.44,0,0,0-.28-.88.88.88,0,0,0-.69-.29,1.2,1.2,0,0,0-.57.12.88.88,0,0,0-.34.35,1.58,1.58,0,0,0-.19.53,4.9,4.9,0,0,0,0,.7v.6a4.9,4.9,0,0,0,0,.7,1.43,1.43,0,0,0,.18.54.88.88,0,0,0,.35.34A1.2,1.2,0,0,0,38.68,363.36Z" fill="#fff"/><path d="M44.24,364.1a2.52,2.52,0,0,1-.85-.14,1.71,1.71,0,0,1-.65-.44,2,2,0,0,1-.4-.73,3.32,3.32,0,0,1-.15-1.05v-.6a3.72,3.72,0,0,1,.17-1.18,2.24,2.24,0,0,1,.44-.78,1.62,1.62,0,0,1,.62-.43,2.23,2.23,0,0,1,1.58,0,1.47,1.47,0,0,1,.57.48,2.3,2.3,0,0,1,.33.78,4.93,4.93,0,0,1,.1,1.07v.51h-3v.12a1.91,1.91,0,0,0,.32,1.23,1.13,1.13,0,0,0,.92.39,1.64,1.64,0,0,0,.4,0,1.13,1.13,0,0,0,.32-.13,1.31,1.31,0,0,0,.27-.19,1.75,1.75,0,0,0,.23-.24l.45.55a2.26,2.26,0,0,1-.26.29,1.64,1.64,0,0,1-.36.25,2.67,2.67,0,0,1-.48.18A2.35,2.35,0,0,1,44.24,364.1Zm-.09-4.74a1.16,1.16,0,0,0-.42.07.78.78,0,0,0-.33.24,1.15,1.15,0,0,0-.23.47,2.83,2.83,0,0,0-.11.74h2.08v-.12a3.29,3.29,0,0,0-.07-.57,1.43,1.43,0,0,0-.16-.44.81.81,0,0,0-.29-.29A1.09,1.09,0,0,0,44.15,359.36Z" fill="#fff"/><path d="M50.11,359.53l-.19,0h-.2a.87.87,0,0,0-.58.2,1.26,1.26,0,0,0-.35.53V364h-.86v-5.28h.84v.53a1.31,1.31,0,0,1,.41-.46,1,1,0,0,1,.57-.17H50l.09,0,.06,0Z" fill="#fff"/><path d="M53.24,357.44v1.28H54v.7h-.79v3.27a1,1,0,0,0,0,.33.43.43,0,0,0,.1.19.24.24,0,0,0,.14.09.51.51,0,0,0,.17,0l.2,0,.15,0V364l-.23.06a1.31,1.31,0,0,1-.37,0A1.34,1.34,0,0,1,53,364a.88.88,0,0,1-.34-.24,1.4,1.4,0,0,1-.23-.44,2.48,2.48,0,0,1-.08-.66v-3.27h-.81v-.7h.81v-1.28Z" fill="#fff"/><path d="M63.21,357.66H61.34V364h-.89v-6.34H58.58v-.77h4.63Z" fill="#fff"/><path d="M65.05,357.32a.6.6,0,0,1,.12-.38.47.47,0,0,1,.37-.15.43.43,0,0,1,.37.16.57.57,0,0,1,.12.37.56.56,0,0,1-.12.36.44.44,0,0,1-.37.15.47.47,0,0,1-.37-.15A.56.56,0,0,1,65.05,357.32ZM66,364H65.1v-5.28H66Z" fill="#fff"/><path d="M70.05,363.36a1,1,0,0,0,.36-.06.83.83,0,0,0,.3-.18,1,1,0,0,0,.22-.32,1.51,1.51,0,0,0,.09-.47h.82a1.82,1.82,0,0,1-.17.72,1.76,1.76,0,0,1-.39.56,1.5,1.5,0,0,1-.56.36,1.67,1.67,0,0,1-.67.13,2.21,2.21,0,0,1-.89-.17,1.66,1.66,0,0,1-.63-.48,2.08,2.08,0,0,1-.37-.76,4.1,4.1,0,0,1-.12-1v-.6a4,4,0,0,1,.12-1,2.16,2.16,0,0,1,.37-.76,1.66,1.66,0,0,1,.63-.48,2,2,0,0,1,.88-.17,1.9,1.9,0,0,1,.73.13,1.43,1.43,0,0,1,.56.38,1.78,1.78,0,0,1,.36.6,2.42,2.42,0,0,1,.15.8H71a1.44,1.44,0,0,0-.28-.88.89.89,0,0,0-.7-.29,1.19,1.19,0,0,0-.56.12,1,1,0,0,0-.35.35,1.83,1.83,0,0,0-.18.53,4.9,4.9,0,0,0,0,.7v.6a4.9,4.9,0,0,0,0,.7,1.43,1.43,0,0,0,.18.54.88.88,0,0,0,.35.34A1.2,1.2,0,0,0,70.05,363.36Z" fill="#fff"/><path d="M75.05,361.58l-.46.53V364h-.86v-7.5h.86V361l.39-.53,1.26-1.74h1l-1.68,2.2,1.9,3.08h-1Z" fill="#fff"/><path d="M80.91,364.1a2.52,2.52,0,0,1-.85-.14,1.71,1.71,0,0,1-.65-.44,2,2,0,0,1-.41-.73,3.66,3.66,0,0,1-.14-1.05v-.6A3.72,3.72,0,0,1,79,360a2.24,2.24,0,0,1,.44-.78,1.55,1.55,0,0,1,.62-.43,2.23,2.23,0,0,1,1.58,0,1.47,1.47,0,0,1,.57.48,2.3,2.3,0,0,1,.33.78,4.93,4.93,0,0,1,.1,1.07v.51h-3v.12A1.91,1.91,0,0,0,80,363a1.13,1.13,0,0,0,.92.39,1.64,1.64,0,0,0,.4,0,1.13,1.13,0,0,0,.32-.13A1.31,1.31,0,0,0,82,363a1.75,1.75,0,0,0,.23-.24l.45.55a2.26,2.26,0,0,1-.26.29,1.64,1.64,0,0,1-.36.25,2.67,2.67,0,0,1-.48.18A2.35,2.35,0,0,1,80.91,364.1Zm-.09-4.74a1.16,1.16,0,0,0-.42.07.78.78,0,0,0-.33.24,1.3,1.3,0,0,0-.24.47,3.39,3.39,0,0,0-.1.74h2.08v-.12a3.29,3.29,0,0,0-.07-.57,1.43,1.43,0,0,0-.16-.44.76.76,0,0,0-.3-.29A1,1,0,0,0,80.82,359.36Z" fill="#fff"/><path d="M85.73,357.44v1.28h.8v.7h-.8v3.27a1,1,0,0,0,0,.33.56.56,0,0,0,.1.19.24.24,0,0,0,.15.09.45.45,0,0,0,.16,0l.2,0,.15,0V364l-.23.06a1.31,1.31,0,0,1-.37,0,1.34,1.34,0,0,1-.4-.07.78.78,0,0,1-.33-.24,1.08,1.08,0,0,1-.23-.44,2.1,2.1,0,0,1-.09-.66v-3.27h-.8v-.7h.8v-1.28Z" fill="#fff"/><path d="M91,362.65a.59.59,0,0,0-.23-.5,2.3,2.3,0,0,0-.31-.22L90,361.7l-.66-.3a2.23,2.23,0,0,1-.48-.32,1.2,1.2,0,0,1-.31-.41,1.35,1.35,0,0,1-.1-.55,1.45,1.45,0,0,1,.12-.59,1.32,1.32,0,0,1,.34-.47,1.38,1.38,0,0,1,.52-.32,1.92,1.92,0,0,1,.69-.12,2,2,0,0,1,.72.12,1.66,1.66,0,0,1,.54.34,1.54,1.54,0,0,1,.33.51,1.68,1.68,0,0,1,.12.63H91a1.06,1.06,0,0,0,0-.31.88.88,0,0,0-.17-.28.79.79,0,0,0-.27-.2,1,1,0,0,0-.36-.07,1,1,0,0,0-.37.06.77.77,0,0,0-.25.16.61.61,0,0,0-.15.24.77.77,0,0,0,0,.27.62.62,0,0,0,0,.25.52.52,0,0,0,.14.2,1.7,1.7,0,0,0,.28.18,4.06,4.06,0,0,0,.46.22c.27.1.5.21.71.31a2.36,2.36,0,0,1,.52.35,1.31,1.31,0,0,1,.32.43,1.35,1.35,0,0,1,.11.55,1.57,1.57,0,0,1-.13.63,1.3,1.3,0,0,1-.35.48,1.72,1.72,0,0,1-.55.3,2.36,2.36,0,0,1-.72.11,2.14,2.14,0,0,1-.79-.14,1.7,1.7,0,0,1-.58-.37,1.6,1.6,0,0,1-.36-.54,1.68,1.68,0,0,1-.12-.63h.87a1.16,1.16,0,0,0,.1.46.87.87,0,0,0,.24.29.81.81,0,0,0,.31.15,1.24,1.24,0,0,0,.33,0,1,1,0,0,0,.66-.19A.65.65,0,0,0,91,362.65Z" fill="#fff"/><path d="M18.84,379v-7.11h1.67a2.63,2.63,0,0,1,1,.19,2.1,2.1,0,0,1,.8.54,2.63,2.63,0,0,1,.52.9,3.78,3.78,0,0,1,.18,1.22v1.42a3.82,3.82,0,0,1-.18,1.22,2.68,2.68,0,0,1-.52.89,2.06,2.06,0,0,1-.81.54,2.76,2.76,0,0,1-1.05.19Zm.56-6.58v6.06h1.08a2.3,2.3,0,0,0,.85-.15,1.59,1.59,0,0,0,.63-.45,2,2,0,0,0,.39-.73,3.33,3.33,0,0,0,.14-1v-1.44a3.35,3.35,0,0,0-.14-1A2.08,2.08,0,0,0,22,373a1.71,1.71,0,0,0-.62-.44,2.37,2.37,0,0,0-.83-.14Z" fill="#fff"/><path d="M28.14,378.37a1.4,1.4,0,0,1-.55.53,1.63,1.63,0,0,1-.84.2,1.59,1.59,0,0,1-.59-.11,1.13,1.13,0,0,1-.46-.35,1.71,1.71,0,0,1-.3-.62,3.5,3.5,0,0,1-.1-.92v-3.38h.53v3.39a2.75,2.75,0,0,0,.08.7,1.18,1.18,0,0,0,.22.45.73.73,0,0,0,.31.25,1,1,0,0,0,.38.07,1.51,1.51,0,0,0,.5-.07,1.17,1.17,0,0,0,.38-.21A1.3,1.3,0,0,0,28,378a1.36,1.36,0,0,0,.17-.41v-3.86h.55V379h-.53Z" fill="#fff"/><path d="M32.76,379.1A2.07,2.07,0,0,1,32,379a1.57,1.57,0,0,1-.64-.44,2.1,2.1,0,0,1-.41-.74,3.35,3.35,0,0,1-.15-1.06v-.61a3.7,3.7,0,0,1,.16-1.13,2.1,2.1,0,0,1,.42-.77,1.51,1.51,0,0,1,.6-.44,2,2,0,0,1,.73-.14,1.58,1.58,0,0,1,1.32.57,2.85,2.85,0,0,1,.45,1.76v.46H31.3v.3a2.88,2.88,0,0,0,.11.83,1.69,1.69,0,0,0,.3.6,1.21,1.21,0,0,0,.47.34,1.48,1.48,0,0,0,.61.12,1.73,1.73,0,0,0,.71-.14,1.69,1.69,0,0,0,.55-.43l.28.36a1.27,1.27,0,0,1-.25.27,1.45,1.45,0,0,1-.34.23,2.16,2.16,0,0,1-.43.15A2.32,2.32,0,0,1,32.76,379.1Zm-.09-5a1.51,1.51,0,0,0-.53.09,1.07,1.07,0,0,0-.42.32,1.54,1.54,0,0,0-.29.54,3.16,3.16,0,0,0-.12.82H33.9v-.14a3.4,3.4,0,0,0-.09-.69,1.5,1.5,0,0,0-.23-.51,1,1,0,0,0-.37-.32A1.19,1.19,0,0,0,32.67,374.13Z" fill="#fff"/><path d="M43.32,379H39.55v-.46l2-2.64c.18-.24.34-.47.46-.66a3.47,3.47,0,0,0,.3-.56,2.14,2.14,0,0,0,.17-.48,2.28,2.28,0,0,0,0-.44,2.16,2.16,0,0,0-.08-.59,1.33,1.33,0,0,0-.23-.46,1,1,0,0,0-.38-.3,1.21,1.21,0,0,0-.52-.11,1.16,1.16,0,0,0-1,.46,1.46,1.46,0,0,0-.26.53,2.17,2.17,0,0,0-.09.65h-.54a2.82,2.82,0,0,1,.12-.83,2.12,2.12,0,0,1,.37-.68,1.67,1.67,0,0,1,.58-.47,1.79,1.79,0,0,1,.78-.17,2.07,2.07,0,0,1,.73.13,1.59,1.59,0,0,1,.56.38,1.61,1.61,0,0,1,.35.6,2.53,2.53,0,0,1,.12.8,2.1,2.1,0,0,1-.1.65,3.53,3.53,0,0,1-.26.65c-.11.21-.23.42-.37.64s-.29.42-.44.62l-1.65,2.24h3.11Z" fill="#fff"/><path d="M46.39,375.12h.51a1.35,1.35,0,0,0,.59-.11,1.17,1.17,0,0,0,.42-.29,1.22,1.22,0,0,0,.26-.44,1.6,1.6,0,0,0,.09-.53,2.1,2.1,0,0,0-.08-.59,1.31,1.31,0,0,0-.22-.46,1,1,0,0,0-.38-.29,1.37,1.37,0,0,0-1,0,1.24,1.24,0,0,0-.4.29,1.38,1.38,0,0,0-.26.46,1.91,1.91,0,0,0-.09.61h-.55a2.32,2.32,0,0,1,.14-.8,1.93,1.93,0,0,1,.37-.62,1.82,1.82,0,0,1,.58-.4,1.72,1.72,0,0,1,.72-.15,2.09,2.09,0,0,1,.72.13,1.57,1.57,0,0,1,.56.39,1.7,1.7,0,0,1,.35.62,2.39,2.39,0,0,1,.13.84,1.58,1.58,0,0,1-.07.47,1.49,1.49,0,0,1-.19.45,1.61,1.61,0,0,1-.31.38,1.74,1.74,0,0,1-.45.29,1.38,1.38,0,0,1,.51.27,1.44,1.44,0,0,1,.35.39,1.63,1.63,0,0,1,.2.49,2.45,2.45,0,0,1,.07.56,2.54,2.54,0,0,1-.14.86,2.15,2.15,0,0,1-.39.64,1.69,1.69,0,0,1-.59.39,2,2,0,0,1-.74.14,1.94,1.94,0,0,1-.71-.13,1.69,1.69,0,0,1-.61-.38,2,2,0,0,1-.42-.63,2.16,2.16,0,0,1-.16-.88h.54a2,2,0,0,0,.1.61,1.41,1.41,0,0,0,.28.48,1.22,1.22,0,0,0,.43.31,1.43,1.43,0,0,0,1.52-.27,1.65,1.65,0,0,0,.34-1.12,1.83,1.83,0,0,0-.1-.66A1.23,1.23,0,0,0,48,376a1.38,1.38,0,0,0-.46-.26,2.23,2.23,0,0,0-.6-.08h-.51Z" fill="#fff"/><path d="M51.1,379.61h-.48l2.49-7.72h.49Z" fill="#fff"/><path d="M59.13,376A6.13,6.13,0,0,1,59,377.4a2.86,2.86,0,0,1-.36,1,1.41,1.41,0,0,1-.58.56,1.49,1.49,0,0,1-.77.19,1.52,1.52,0,0,1-.77-.19,1.48,1.48,0,0,1-.58-.56,2.86,2.86,0,0,1-.37-1,6.13,6.13,0,0,1-.13-1.37v-1.19a6.74,6.74,0,0,1,.12-1.36,3.09,3.09,0,0,1,.37-1,1.55,1.55,0,0,1,.58-.56,1.74,1.74,0,0,1,1.54,0,1.57,1.57,0,0,1,.59.56,2.86,2.86,0,0,1,.36,1,6,6,0,0,1,.13,1.36Zm-.55-1.27a4.19,4.19,0,0,0-.32-1.84,1.08,1.08,0,0,0-2,0,4,4,0,0,0-.32,1.84v1.34a5.65,5.65,0,0,0,.08,1.06,3.06,3.06,0,0,0,.25.79,1.31,1.31,0,0,0,.41.48,1.1,1.1,0,0,0,1.14,0,1.29,1.29,0,0,0,.4-.48,2.72,2.72,0,0,0,.24-.79,5.65,5.65,0,0,0,.08-1.06Z" fill="#fff"/><path d="M64.17,371.84v.52h-.08a2.21,2.21,0,0,0-1,.2,1.89,1.89,0,0,0-.7.55A2.66,2.66,0,0,0,62,374a4.45,4.45,0,0,0-.2,1.16,1.65,1.65,0,0,1,.62-.61,1.63,1.63,0,0,1,1.58,0,1.72,1.72,0,0,1,.53.51,2.21,2.21,0,0,1,.32.75,3.24,3.24,0,0,1,.11.89,3.71,3.71,0,0,1-.12,1,2.59,2.59,0,0,1-.35.77,1.82,1.82,0,0,1-.56.51,1.44,1.44,0,0,1-.75.19,1.59,1.59,0,0,1-.82-.21,2,2,0,0,1-.61-.56,2.73,2.73,0,0,1-.37-.83,3.73,3.73,0,0,1-.13-1v-.62a7.57,7.57,0,0,1,.16-1.65,3.75,3.75,0,0,1,.51-1.27,2.58,2.58,0,0,1,.89-.82,2.73,2.73,0,0,1,1.29-.29Zm-1,3a1.22,1.22,0,0,0-.46.09,1.28,1.28,0,0,0-.4.25,1.59,1.59,0,0,0-.32.36,1.93,1.93,0,0,0-.19.47v.49a3,3,0,0,0,.11.88,2.05,2.05,0,0,0,.3.65,1.35,1.35,0,0,0,.44.42,1.14,1.14,0,0,0,.54.14.91.91,0,0,0,.52-.15,1.27,1.27,0,0,0,.4-.4,1.85,1.85,0,0,0,.24-.61,2.86,2.86,0,0,0,.09-.73,3.22,3.22,0,0,0-.08-.71,1.74,1.74,0,0,0-.24-.59,1.18,1.18,0,0,0-.39-.41A1,1,0,0,0,63.15,374.84Z" fill="#fff"/><path d="M67.06,379.61h-.49l2.5-7.72h.48Z" fill="#fff"/><path d="M75.23,379H71.46v-.46l2-2.64c.18-.24.34-.47.46-.66a3.47,3.47,0,0,0,.3-.56,2.79,2.79,0,0,0,.17-.48,2.28,2.28,0,0,0,0-.44,2.16,2.16,0,0,0-.08-.59,1.33,1.33,0,0,0-.23-.46,1,1,0,0,0-.38-.3,1.3,1.3,0,0,0-1.07,0,1.23,1.23,0,0,0-.41.34,1.46,1.46,0,0,0-.26.53,2.17,2.17,0,0,0-.09.65h-.55a2.83,2.83,0,0,1,.13-.83,2.31,2.31,0,0,1,.36-.68,1.81,1.81,0,0,1,.59-.47,1.79,1.79,0,0,1,.78-.17,2.11,2.11,0,0,1,.73.13,1.68,1.68,0,0,1,.56.38,1.76,1.76,0,0,1,.35.6,2.53,2.53,0,0,1,.12.8,2.44,2.44,0,0,1-.1.65,4.4,4.4,0,0,1-.26.65c-.11.21-.23.42-.37.64s-.29.42-.44.62l-1.65,2.24h3.11Z" fill="#fff"/><path d="M80.84,376a6.13,6.13,0,0,1-.13,1.37,2.86,2.86,0,0,1-.36,1,1.48,1.48,0,0,1-.58.56,1.6,1.6,0,0,1-2.13-.56,2.86,2.86,0,0,1-.36-1,6.13,6.13,0,0,1-.13-1.37v-1.19a6.74,6.74,0,0,1,.12-1.36,3.09,3.09,0,0,1,.37-1,1.48,1.48,0,0,1,.58-.56,1.59,1.59,0,0,1,.77-.18,1.65,1.65,0,0,1,.77.18,1.48,1.48,0,0,1,.58.56,2.86,2.86,0,0,1,.37,1,6,6,0,0,1,.13,1.36Zm-.55-1.27a4.19,4.19,0,0,0-.32-1.84,1.08,1.08,0,0,0-2,0,4,4,0,0,0-.33,1.84v1.34a5.59,5.59,0,0,0,.09,1.06A3.06,3.06,0,0,0,78,378a1.22,1.22,0,0,0,.41.48,1,1,0,0,0,.57.16,1,1,0,0,0,.57-.16A1.29,1.29,0,0,0,80,378a2.72,2.72,0,0,0,.24-.79,6.64,6.64,0,0,0,.08-1.06Z" fill="#fff"/><path d="M86.73,379H83v-.46l2-2.64c.18-.24.33-.47.46-.66s.22-.39.3-.56a2.79,2.79,0,0,0,.17-.48,2.25,2.25,0,0,0,0-.44,2.17,2.17,0,0,0-.07-.59,1.53,1.53,0,0,0-.23-.46,1,1,0,0,0-.38-.3,1.24,1.24,0,0,0-.52-.11,1.2,1.2,0,0,0-.55.12,1.26,1.26,0,0,0-.42.34,1.64,1.64,0,0,0-.26.53,2.17,2.17,0,0,0-.09.65h-.54a2.83,2.83,0,0,1,.13-.83,2.1,2.1,0,0,1,.36-.68,1.77,1.77,0,0,1,.58-.47,1.83,1.83,0,0,1,.79-.17,2.11,2.11,0,0,1,.73.13,1.55,1.55,0,0,1,.55.38,1.49,1.49,0,0,1,.35.6,2.28,2.28,0,0,1,.13.8,2.44,2.44,0,0,1-.1.65,4.4,4.4,0,0,1-.26.65c-.11.21-.23.42-.37.64s-.29.42-.44.62l-1.66,2.24h3.11Z" fill="#fff"/><path d="M92.35,376a6.13,6.13,0,0,1-.13,1.37,2.86,2.86,0,0,1-.36,1,1.48,1.48,0,0,1-.58.56,1.52,1.52,0,0,1-.77.19,1.54,1.54,0,0,1-1.36-.75,3.09,3.09,0,0,1-.37-1,6.84,6.84,0,0,1-.12-1.37v-1.19a6.74,6.74,0,0,1,.12-1.36,3.09,3.09,0,0,1,.37-1,1.53,1.53,0,0,1,.57-.56,1.76,1.76,0,0,1,1.55,0,1.55,1.55,0,0,1,.58.56,2.86,2.86,0,0,1,.37,1,6.68,6.68,0,0,1,.13,1.36Zm-.55-1.27a4.19,4.19,0,0,0-.32-1.84,1.08,1.08,0,0,0-2,0,4,4,0,0,0-.33,1.84v1.34a5.59,5.59,0,0,0,.09,1.06,2.72,2.72,0,0,0,.25.79,1.22,1.22,0,0,0,.41.48,1,1,0,0,0,.57.16,1,1,0,0,0,.56-.16,1.22,1.22,0,0,0,.41-.48,3.07,3.07,0,0,0,.24-.79,6.64,6.64,0,0,0,.08-1.06Z" fill="#fff"/><path d="M315,369.28a1.7,1.7,0,0,1-.46,1.22,2.2,2.2,0,0,1-1.19.64v1.31h-.62V371.2a4.41,4.41,0,0,1-1.15-.2,2,2,0,0,1-.9-.49v-.35a6.88,6.88,0,0,1,.12-1.34h.54l.13,1.2a2.68,2.68,0,0,0,1.67.52l.35,0a1.09,1.09,0,0,0,.58-1,1.17,1.17,0,0,0-.71-1l-1.61-.84a1.75,1.75,0,0,1-1-1.54,1.51,1.51,0,0,1,.57-1.23,2.51,2.51,0,0,1,1.43-.56v-1.17h.61v1.16a6.35,6.35,0,0,1,1.37.3V365a7,7,0,0,1-.11,1.34H314l-.11-.91a2.18,2.18,0,0,0-1.37-.44l-.46,0a1,1,0,0,0-.47.91,1.09,1.09,0,0,0,.68,1l1.6.81A1.83,1.83,0,0,1,315,369.28Z" fill="#fff"/><path d="M319.47,367.51a3.94,3.94,0,0,1,1.07.81,1.48,1.48,0,0,1,.39,1,1.69,1.69,0,0,1-.61,1.32,2.31,2.31,0,0,1-1.57.52,2.25,2.25,0,0,1-1.5-.48,1.5,1.5,0,0,1-.57-1.22c0-.73.46-1.33,1.4-1.8a2,2,0,0,1-1.25-1.72,1.48,1.48,0,0,1,.55-1.19,2.21,2.21,0,0,1,1.46-.47,2.1,2.1,0,0,1,1.36.42,1.33,1.33,0,0,1,.53,1.08C320.73,366.47,320.31,367,319.47,367.51Zm.24,2.93a2,2,0,0,0,.31-.92c0-.57-.49-1.1-1.46-1.58a1.59,1.59,0,0,0-.66.62,1.52,1.52,0,0,0-.23.82,1.15,1.15,0,0,0,1.23,1.21A2.59,2.59,0,0,0,319.71,370.44Zm-2-4.56a1,1,0,0,0,.33.75,4.25,4.25,0,0,0,1,.64,1.63,1.63,0,0,0,.87-1.31,1.06,1.06,0,0,0-.32-.78,1.09,1.09,0,0,0-.81-.31,1.88,1.88,0,0,0-.7.15A1.33,1.33,0,0,0,317.72,365.88Z" fill="#fff"/><path d="M325.28,367.46a1.87,1.87,0,0,1,1.06.67,1.79,1.79,0,0,1,.44,1.17,1.73,1.73,0,0,1-.62,1.36,2.42,2.42,0,0,1-1.61.53,4.14,4.14,0,0,1-1.93-.47l.18-.9a4.74,4.74,0,0,0,2.15.55,2.47,2.47,0,0,0,.56-.06,1.35,1.35,0,0,0,.37-.92,1.2,1.2,0,0,0-.43-.92,1.83,1.83,0,0,0-1.23-.37l-.71,0,0-.68h.17a2.08,2.08,0,0,0,1.39-.44,1.24,1.24,0,0,0,.44-.95,1,1,0,0,0-.34-.81,1.3,1.3,0,0,0-.93-.32,2.48,2.48,0,0,0-.69.11l-.18,1.1h-.58a5.66,5.66,0,0,1-.09-.91v-.38a3.13,3.13,0,0,1,1.83-.54,2.09,2.09,0,0,1,1.38.46,1.49,1.49,0,0,1,.54,1.16,1.52,1.52,0,0,1-.3.9A1.8,1.8,0,0,1,325.28,367.46Z" fill="#fff"/><path d="M328.64,372.08a1.68,1.68,0,0,0,.68-1.08l-.52-.4a1,1,0,0,1,.61-.8,1,1,0,0,1,.52.36,1,1,0,0,1,.19.59,1.66,1.66,0,0,1-.32.93,2.36,2.36,0,0,1-.87.78Z" fill="#fff"/><path d="M334.91,368.39a3.22,3.22,0,0,1-1,.17,2,2,0,0,1-1.5-.61,2.17,2.17,0,0,1-.57-1.54,2,2,0,0,1,.61-1.52,2.14,2.14,0,0,1,1.54-.59,2,2,0,0,1,1.64.79,3.3,3.3,0,0,1,.63,2.1,3.86,3.86,0,0,1-1,2.76,3.51,3.51,0,0,1-2.62,1.13l-.16-1.09,1.58.09a3.08,3.08,0,0,0,1.31-2.82,3.62,3.62,0,0,0-.35-1.67,1.11,1.11,0,0,0-1.05-.67,1.78,1.78,0,0,0-.44.06,1.26,1.26,0,0,0-.51.58,2,2,0,0,0-.18.83,1.57,1.57,0,0,0,.41,1.11,1.39,1.39,0,0,0,1.06.44,2.27,2.27,0,0,0,.53-.08Z" fill="#fff"/><path d="M337.82,367.84a4.25,4.25,0,0,1,.68-2.48,2.1,2.1,0,0,1,1.79-1,1.84,1.84,0,0,1,1.66.9,4.33,4.33,0,0,1,.56,2.3,4.5,4.5,0,0,1-.65,2.55,2,2,0,0,1-1.73,1,2,2,0,0,1-1.67-.9A4,4,0,0,1,337.82,367.84Zm1.74-2.72a2.3,2.3,0,0,0-.61,1.13,5.52,5.52,0,0,0-.21,1.45,3.91,3.91,0,0,0,.45,1.95,1.31,1.31,0,0,0,1.15.8,1.23,1.23,0,0,0,.42-.07,2.23,2.23,0,0,0,.62-1.14,6,6,0,0,0,.2-1.51,4,4,0,0,0-.4-1.9,1.26,1.26,0,0,0-1.16-.78A1.51,1.51,0,0,0,339.56,365.12Z" fill="#fff"/><path d="M242.82,368.21h-2.61V371h-1.08v-2.79h-2.62v-.92h2.62v-2.8h1.08v2.8h2.61Z" fill="#fff"/><path d="M251.74,368.59a2.37,2.37,0,0,1-.65,1.71,3.08,3.08,0,0,1-1.66.9V373h-.88v-1.75A6.26,6.26,0,0,1,247,371a2.79,2.79,0,0,1-1.25-.69l0-.49a10.65,10.65,0,0,1,.15-1.87h.76l.2,1.68a3.79,3.79,0,0,0,2.34.73l.47,0a1.5,1.5,0,0,0,.81-1.43,1.61,1.61,0,0,0-1-1.41l-2.27-1.18a2.48,2.48,0,0,1-1.41-2.16,2.14,2.14,0,0,1,.81-1.73,3.54,3.54,0,0,1,2-.77V360h.87v1.62a8.48,8.48,0,0,1,1.9.42l0,.49a9.91,9.91,0,0,1-.16,1.88h-.75l-.14-1.27a3.07,3.07,0,0,0-1.92-.62l-.65.06a1.39,1.39,0,0,0-.67,1.27,1.56,1.56,0,0,0,1,1.33l2.24,1.13A2.56,2.56,0,0,1,251.74,368.59Z" fill="#fff"/><path d="M19.66,399.22V402h-.89v-7.11H21a2.35,2.35,0,0,1,.91.16,1.88,1.88,0,0,1,.67.45,2.18,2.18,0,0,1,.41.69,2.74,2.74,0,0,1,.14.87A2.87,2.87,0,0,1,23,398a1.93,1.93,0,0,1-.41.68,1.76,1.76,0,0,1-.67.41,2.55,2.55,0,0,1-.91.15Zm0-.77H21a1.34,1.34,0,0,0,.56-.1,1,1,0,0,0,.38-.29,1.25,1.25,0,0,0,.22-.43,2,2,0,0,0,.07-.56,1.88,1.88,0,0,0-.07-.53,1.35,1.35,0,0,0-.22-.45,1.06,1.06,0,0,0-.38-.31,1.19,1.19,0,0,0-.56-.12H19.66Z" fill="#fff"/><path d="M25.1,395.32a.6.6,0,0,1,.12-.38.44.44,0,0,1,.37-.15A.41.41,0,0,1,26,395a.52.52,0,0,1,.13.37.56.56,0,0,1-.12.36.45.45,0,0,1-.37.15.44.44,0,0,1-.37-.15A.56.56,0,0,1,25.1,395.32ZM26,402h-.86v-5.28H26Z" fill="#fff"/><path d="M29.06,401.26h2.55V402H28.07v-.66l2.43-3.88H28.09v-.74h3.42v.64Z" fill="#fff"/><path d="M34.34,401.26h2.55V402H33.35v-.66l2.43-3.88H33.37v-.74h3.42v.64Z" fill="#fff"/><path d="M41.54,402a1.26,1.26,0,0,1-.07-.25,3,3,0,0,1,0-.33,1.78,1.78,0,0,1-.22.26,1.12,1.12,0,0,1-.26.22,1.22,1.22,0,0,1-.33.14,1,1,0,0,1-.36.06,1.74,1.74,0,0,1-.63-.1,1.29,1.29,0,0,1-.48-.29,1.21,1.21,0,0,1-.31-.48,2,2,0,0,1-.11-.67,2,2,0,0,1,.13-.7,1.57,1.57,0,0,1,.39-.56,1.87,1.87,0,0,1,.65-.37,2.82,2.82,0,0,1,.91-.13h.6v-.56a.92.92,0,0,0-.21-.68.91.91,0,0,0-.64-.2.87.87,0,0,0-.37.07.75.75,0,0,0-.28.18.78.78,0,0,0-.17.26.81.81,0,0,0-.06.31h-.86a1.38,1.38,0,0,1,.12-.56,1.64,1.64,0,0,1,.36-.5,1.8,1.8,0,0,1,.56-.36,2,2,0,0,1,.75-.14,2.41,2.41,0,0,1,.67.09,1.42,1.42,0,0,1,.53.28,1.39,1.39,0,0,1,.34.5,2.13,2.13,0,0,1,.12.76v2.6c0,.09,0,.18,0,.28l0,.28.06.28a1.55,1.55,0,0,0,.07.23V402Zm-1.15-.69a1.27,1.27,0,0,0,.34-.05,1.3,1.3,0,0,0,.29-.14.9.9,0,0,0,.23-.2,1,1,0,0,0,.16-.22v-1.26H41a2.49,2.49,0,0,0-.57.06,1.71,1.71,0,0,0-.43.2.88.88,0,0,0-.36.76,1.18,1.18,0,0,0,0,.4.59.59,0,0,0,.14.26.58.58,0,0,0,.25.15A1.2,1.2,0,0,0,40.39,401.31Z" fill="#fff"/><path d="M50.4,402a1.26,1.26,0,0,1-.07-.25,3,3,0,0,1,0-.33,1.71,1.71,0,0,1-.21.26,1.44,1.44,0,0,1-.27.22,1.3,1.3,0,0,1-.32.14,1.15,1.15,0,0,1-.37.06,1.81,1.81,0,0,1-.63-.1,1.29,1.29,0,0,1-.48-.29,1.33,1.33,0,0,1-.31-.48,2,2,0,0,1-.11-.67,1.78,1.78,0,0,1,.14-.7,1.36,1.36,0,0,1,.39-.56,1.79,1.79,0,0,1,.65-.37,2.75,2.75,0,0,1,.9-.13h.6v-.56a.88.88,0,0,0-.21-.68.9.9,0,0,0-.63-.2.92.92,0,0,0-.38.07.64.64,0,0,0-.27.18.68.68,0,0,0-.18.26,1.06,1.06,0,0,0-.05.31h-.87a1.24,1.24,0,0,1,.13-.56,1.46,1.46,0,0,1,.35-.5,1.85,1.85,0,0,1,.57-.36,2,2,0,0,1,.74-.14,2.36,2.36,0,0,1,.67.09,1.42,1.42,0,0,1,.53.28,1.27,1.27,0,0,1,.34.5,2.13,2.13,0,0,1,.12.76v2.6c0,.09,0,.18,0,.28a2.7,2.7,0,0,0,0,.28,2.33,2.33,0,0,0,0,.28,1.55,1.55,0,0,0,.07.23V402Zm-1.15-.69a1.27,1.27,0,0,0,.34-.05,1.12,1.12,0,0,0,.29-.14,1.16,1.16,0,0,0,.24-.2,1,1,0,0,0,.15-.22v-1.26h-.45a2.34,2.34,0,0,0-.56.06,1.56,1.56,0,0,0-.43.2,1.06,1.06,0,0,0-.28.32,1,1,0,0,0-.09.44,1.18,1.18,0,0,0,0,.4.59.59,0,0,0,.14.26.58.58,0,0,0,.25.15A1.25,1.25,0,0,0,49.25,401.31Z" fill="#fff"/><path d="M54.5,395.44v1.28h.79v.7H54.5v3.27a1.42,1.42,0,0,0,0,.33.43.43,0,0,0,.11.19.24.24,0,0,0,.14.09.47.47,0,0,0,.17,0l.2,0,.15,0V402l-.24.06a1.19,1.19,0,0,1-.36,0,1.29,1.29,0,0,1-.4-.07.88.88,0,0,1-.34-.24,1.22,1.22,0,0,1-.23-.44,2.13,2.13,0,0,1-.08-.66v-3.27h-.81v-.7h.81v-1.28Z" fill="#fff"/><path d="M63,394.89h.9v5a3,3,0,0,1-.14.94,1.83,1.83,0,0,1-.4.68,1.81,1.81,0,0,1-.6.42,2.21,2.21,0,0,1-.78.14,2.09,2.09,0,0,1-.76-.13,1.54,1.54,0,0,1-.61-.38,1.77,1.77,0,0,1-.39-.64A2.52,2.52,0,0,1,60,400h.9a2,2,0,0,0,.07.58,1.26,1.26,0,0,0,.22.4.82.82,0,0,0,.32.24,1.09,1.09,0,0,0,.4.07,1,1,0,0,0,.41-.09.83.83,0,0,0,.32-.27,1.09,1.09,0,0,0,.22-.43,2.3,2.3,0,0,0,.07-.62Z" fill="#fff"/><path d="M65.93,399.11a3.51,3.51,0,0,1,.16-1.08,2.27,2.27,0,0,1,.44-.78,1.72,1.72,0,0,1,.64-.47,2,2,0,0,1,.8-.16,2,2,0,0,1,.81.16,1.75,1.75,0,0,1,.65.47,2.25,2.25,0,0,1,.43.78,3.23,3.23,0,0,1,.16,1.08v.5a3.23,3.23,0,0,1-.16,1.08,2.25,2.25,0,0,1-.43.78,1.75,1.75,0,0,1-.65.47,2.08,2.08,0,0,1-1.6,0,1.67,1.67,0,0,1-.65-.47,2.27,2.27,0,0,1-.44-.78,3.51,3.51,0,0,1-.16-1.08Zm.87.5a2.91,2.91,0,0,0,.09.77,1.5,1.5,0,0,0,.25.54,1,1,0,0,0,.37.33,1,1,0,0,0,.47.11c.78,0,1.18-.58,1.18-1.75v-.5a2.88,2.88,0,0,0-.09-.76,1.69,1.69,0,0,0-.25-.54,1.11,1.11,0,0,0-.38-.34,1,1,0,0,0-.47-.11,1,1,0,0,0-.46.11,1.11,1.11,0,0,0-.38.34,1.69,1.69,0,0,0-.24.54,2.88,2.88,0,0,0-.09.76Z" fill="#fff"/><path d="M72.89,397.26a1.64,1.64,0,0,1,.55-.47,1.64,1.64,0,0,1,1.29-.07,1.08,1.08,0,0,1,.45.34,1.6,1.6,0,0,1,.29.6,3.18,3.18,0,0,1,.1.88V402h-.86v-3.47a1.42,1.42,0,0,0-.21-.88.72.72,0,0,0-.62-.26.9.9,0,0,0-.58.21,1.48,1.48,0,0,0-.41.56V402H72v-7.5h.87Z" fill="#fff"/><path d="M78.56,396.72l0,.57a1.81,1.81,0,0,1,.57-.5,1.66,1.66,0,0,1,1.3-.07,1.08,1.08,0,0,1,.45.34,1.6,1.6,0,0,1,.29.6,3.18,3.18,0,0,1,.1.88V402h-.86v-3.47a1.42,1.42,0,0,0-.21-.88.72.72,0,0,0-.62-.26.9.9,0,0,0-.58.21,1.48,1.48,0,0,0-.41.56V402h-.87v-5.28Z" fill="#fff"/><path d="M18.84,417v-7.11h1.67a2.63,2.63,0,0,1,1,.19,2.1,2.1,0,0,1,.8.54,2.63,2.63,0,0,1,.52.9,3.78,3.78,0,0,1,.18,1.22v1.42a3.82,3.82,0,0,1-.18,1.22,2.68,2.68,0,0,1-.52.89,2.06,2.06,0,0,1-.81.54,2.76,2.76,0,0,1-1.05.19Zm.56-6.58v6.06h1.08a2.3,2.3,0,0,0,.85-.15,1.59,1.59,0,0,0,.63-.45,2,2,0,0,0,.39-.73,3.33,3.33,0,0,0,.14-1v-1.44a3.35,3.35,0,0,0-.14-1A2.08,2.08,0,0,0,22,411a1.71,1.71,0,0,0-.62-.44,2.37,2.37,0,0,0-.83-.14Z" fill="#fff"/><path d="M28.14,416.37a1.4,1.4,0,0,1-.55.53,1.63,1.63,0,0,1-.84.2,1.59,1.59,0,0,1-.59-.11,1.13,1.13,0,0,1-.46-.35,1.71,1.71,0,0,1-.3-.62,3.5,3.5,0,0,1-.1-.92v-3.38h.53v3.39a2.75,2.75,0,0,0,.08.7,1.18,1.18,0,0,0,.22.45.73.73,0,0,0,.31.25,1,1,0,0,0,.38.07,1.51,1.51,0,0,0,.5-.07,1.17,1.17,0,0,0,.38-.21A1.3,1.3,0,0,0,28,416a1.36,1.36,0,0,0,.17-.41v-3.86h.55V417h-.53Z" fill="#fff"/><path d="M32.76,417.1A2.07,2.07,0,0,1,32,417a1.57,1.57,0,0,1-.64-.44,2.1,2.1,0,0,1-.41-.74,3.35,3.35,0,0,1-.15-1.06v-.61a3.7,3.7,0,0,1,.16-1.13,2.1,2.1,0,0,1,.42-.77,1.51,1.51,0,0,1,.6-.44,2,2,0,0,1,.73-.14,1.58,1.58,0,0,1,1.32.57,2.85,2.85,0,0,1,.45,1.76v.46H31.3v.3a2.88,2.88,0,0,0,.11.83,1.69,1.69,0,0,0,.3.6,1.21,1.21,0,0,0,.47.34,1.48,1.48,0,0,0,.61.12,1.73,1.73,0,0,0,.71-.14,1.69,1.69,0,0,0,.55-.43l.28.36a1.27,1.27,0,0,1-.25.27,1.45,1.45,0,0,1-.34.23,2.16,2.16,0,0,1-.43.15A2.32,2.32,0,0,1,32.76,417.1Zm-.09-5a1.51,1.51,0,0,0-.53.09,1.07,1.07,0,0,0-.42.32,1.54,1.54,0,0,0-.29.54,3.16,3.16,0,0,0-.12.82H33.9v-.14a3.4,3.4,0,0,0-.09-.69,1.5,1.5,0,0,0-.23-.51,1,1,0,0,0-.37-.32A1.19,1.19,0,0,0,32.67,412.13Z" fill="#fff"/><path d="M41.87,417h-.55v-6.39l-1.6.72v-.56l2.06-.9h.09Z" fill="#fff"/><path d="M48.35,414.71h.91v.5h-.91V417h-.54v-1.79H45v-.34l2.75-5h.59Zm-2.69,0h2.15v-4l-.2.4Z" fill="#fff"/><path d="M51.1,417.61h-.48l2.49-7.72h.49Z" fill="#fff"/><path d="M59.13,414A6.13,6.13,0,0,1,59,415.4a2.86,2.86,0,0,1-.36,1,1.41,1.41,0,0,1-.58.56,1.49,1.49,0,0,1-.77.19,1.52,1.52,0,0,1-.77-.19,1.48,1.48,0,0,1-.58-.56,2.86,2.86,0,0,1-.37-1,6.13,6.13,0,0,1-.13-1.37v-1.19a6.74,6.74,0,0,1,.12-1.36,3.09,3.09,0,0,1,.37-1,1.55,1.55,0,0,1,.58-.56,1.74,1.74,0,0,1,1.54,0,1.57,1.57,0,0,1,.59.56,2.86,2.86,0,0,1,.36,1,6,6,0,0,1,.13,1.36Zm-.55-1.27a4.19,4.19,0,0,0-.32-1.84,1.08,1.08,0,0,0-2,0,4,4,0,0,0-.32,1.84v1.34a5.65,5.65,0,0,0,.08,1.06,3.06,3.06,0,0,0,.25.79,1.31,1.31,0,0,0,.41.48,1.1,1.1,0,0,0,1.14,0,1.29,1.29,0,0,0,.4-.48,2.72,2.72,0,0,0,.24-.79,5.65,5.65,0,0,0,.08-1.06Z" fill="#fff"/><path d="M64.17,409.84v.52h-.08a2.21,2.21,0,0,0-1,.2,1.89,1.89,0,0,0-.7.55A2.66,2.66,0,0,0,62,412a4.45,4.45,0,0,0-.2,1.16,1.65,1.65,0,0,1,.62-.61,1.63,1.63,0,0,1,1.58,0,1.72,1.72,0,0,1,.53.51,2.21,2.21,0,0,1,.32.75,3.24,3.24,0,0,1,.11.89,3.71,3.71,0,0,1-.12,1,2.59,2.59,0,0,1-.35.77,1.82,1.82,0,0,1-.56.51,1.44,1.44,0,0,1-.75.19,1.59,1.59,0,0,1-.82-.21,2,2,0,0,1-.61-.56,2.73,2.73,0,0,1-.37-.83,3.73,3.73,0,0,1-.13-1v-.62a7.57,7.57,0,0,1,.16-1.65,3.75,3.75,0,0,1,.51-1.27,2.58,2.58,0,0,1,.89-.82,2.73,2.73,0,0,1,1.29-.29Zm-1,3a1.22,1.22,0,0,0-.46.09,1.28,1.28,0,0,0-.4.25,1.59,1.59,0,0,0-.32.36,1.93,1.93,0,0,0-.19.47v.49a3,3,0,0,0,.11.88,2.05,2.05,0,0,0,.3.65,1.35,1.35,0,0,0,.44.42,1.14,1.14,0,0,0,.54.14.91.91,0,0,0,.52-.15,1.27,1.27,0,0,0,.4-.4,1.85,1.85,0,0,0,.24-.61,2.86,2.86,0,0,0,.09-.73,3.22,3.22,0,0,0-.08-.71,1.74,1.74,0,0,0-.24-.59,1.18,1.18,0,0,0-.39-.41A1,1,0,0,0,63.15,412.84Z" fill="#fff"/><path d="M67.06,417.61h-.49l2.5-7.72h.48Z" fill="#fff"/><path d="M75.23,417H71.46v-.46l2-2.64c.18-.24.34-.47.46-.66a3.47,3.47,0,0,0,.3-.56,2.79,2.79,0,0,0,.17-.48,2.28,2.28,0,0,0,0-.44,2.16,2.16,0,0,0-.08-.59,1.33,1.33,0,0,0-.23-.46,1,1,0,0,0-.38-.3,1.3,1.3,0,0,0-1.07,0,1.23,1.23,0,0,0-.41.34,1.46,1.46,0,0,0-.26.53,2.17,2.17,0,0,0-.09.65h-.55a2.83,2.83,0,0,1,.13-.83,2.31,2.31,0,0,1,.36-.68,1.81,1.81,0,0,1,.59-.47,1.79,1.79,0,0,1,.78-.17,2.11,2.11,0,0,1,.73.13,1.68,1.68,0,0,1,.56.38,1.76,1.76,0,0,1,.35.6,2.53,2.53,0,0,1,.12.8,2.44,2.44,0,0,1-.1.65,4.4,4.4,0,0,1-.26.65c-.11.21-.23.42-.37.64s-.29.42-.44.62l-1.65,2.24h3.11Z" fill="#fff"/><path d="M80.84,414a6.13,6.13,0,0,1-.13,1.37,2.86,2.86,0,0,1-.36,1,1.48,1.48,0,0,1-.58.56,1.6,1.6,0,0,1-2.13-.56,2.86,2.86,0,0,1-.36-1,6.13,6.13,0,0,1-.13-1.37v-1.19a6.74,6.74,0,0,1,.12-1.36,3.09,3.09,0,0,1,.37-1,1.48,1.48,0,0,1,.58-.56,1.59,1.59,0,0,1,.77-.18,1.65,1.65,0,0,1,.77.18,1.48,1.48,0,0,1,.58.56,2.86,2.86,0,0,1,.37,1,6,6,0,0,1,.13,1.36Zm-.55-1.27a4.19,4.19,0,0,0-.32-1.84,1.08,1.08,0,0,0-2,0,4,4,0,0,0-.33,1.84v1.34a5.59,5.59,0,0,0,.09,1.06A3.06,3.06,0,0,0,78,416a1.22,1.22,0,0,0,.41.48,1,1,0,0,0,.57.16,1,1,0,0,0,.57-.16A1.29,1.29,0,0,0,80,416a2.72,2.72,0,0,0,.24-.79,6.64,6.64,0,0,0,.08-1.06Z" fill="#fff"/><path d="M86.73,417H83v-.46l2-2.64c.18-.24.33-.47.46-.66s.22-.39.3-.56a2.79,2.79,0,0,0,.17-.48,2.25,2.25,0,0,0,0-.44,2.17,2.17,0,0,0-.07-.59,1.53,1.53,0,0,0-.23-.46,1,1,0,0,0-.38-.3,1.24,1.24,0,0,0-.52-.11,1.2,1.2,0,0,0-.55.12,1.26,1.26,0,0,0-.42.34,1.64,1.64,0,0,0-.26.53,2.17,2.17,0,0,0-.09.65h-.54a2.83,2.83,0,0,1,.13-.83,2.1,2.1,0,0,1,.36-.68,1.77,1.77,0,0,1,.58-.47,1.83,1.83,0,0,1,.79-.17,2.11,2.11,0,0,1,.73.13,1.55,1.55,0,0,1,.55.38,1.49,1.49,0,0,1,.35.6,2.28,2.28,0,0,1,.13.8,2.44,2.44,0,0,1-.1.65,4.4,4.4,0,0,1-.26.65c-.11.21-.23.42-.37.64s-.29.42-.44.62l-1.66,2.24h3.11Z" fill="#fff"/><path d="M92.35,414a6.13,6.13,0,0,1-.13,1.37,2.86,2.86,0,0,1-.36,1,1.48,1.48,0,0,1-.58.56,1.52,1.52,0,0,1-.77.19,1.54,1.54,0,0,1-1.36-.75,3.09,3.09,0,0,1-.37-1,6.84,6.84,0,0,1-.12-1.37v-1.19a6.74,6.74,0,0,1,.12-1.36,3.09,3.09,0,0,1,.37-1,1.53,1.53,0,0,1,.57-.56,1.76,1.76,0,0,1,1.55,0,1.55,1.55,0,0,1,.58.56,2.86,2.86,0,0,1,.37,1,6.68,6.68,0,0,1,.13,1.36Zm-.55-1.27a4.19,4.19,0,0,0-.32-1.84,1.08,1.08,0,0,0-2,0,4,4,0,0,0-.33,1.84v1.34a5.59,5.59,0,0,0,.09,1.06,2.72,2.72,0,0,0,.25.79,1.22,1.22,0,0,0,.41.48,1,1,0,0,0,.57.16,1,1,0,0,0,.56-.16,1.22,1.22,0,0,0,.41-.48,3.07,3.07,0,0,0,.24-.79,6.64,6.64,0,0,0,.08-1.06Z" fill="#fff"/><path d="M297.51,407.28a1.71,1.71,0,0,1-.47,1.22,2.17,2.17,0,0,1-1.18.64v1.31h-.63V409.2a4.41,4.41,0,0,1-1.15-.2,2,2,0,0,1-.89-.49v-.35a6.92,6.92,0,0,1,.11-1.34h.54L294,408a2.66,2.66,0,0,0,1.67.52l.34,0a1.09,1.09,0,0,0,.58-1,1.18,1.18,0,0,0-.7-1l-1.62-.84a1.75,1.75,0,0,1-1-1.54,1.51,1.51,0,0,1,.57-1.23,2.51,2.51,0,0,1,1.43-.56v-1.17h.62v1.16a6.41,6.41,0,0,1,1.36.3V403a7.9,7.9,0,0,1-.11,1.34h-.54l-.1-.91a2.2,2.2,0,0,0-1.37-.44l-.46,0a1,1,0,0,0-.48.91,1.1,1.1,0,0,0,.69,1l1.6.81A1.85,1.85,0,0,1,297.51,407.28Z" fill="#fff"/><path d="M302.18,406.39a3.22,3.22,0,0,1-1,.17,2,2,0,0,1-1.5-.61,2.17,2.17,0,0,1-.57-1.54,2,2,0,0,1,.61-1.52,2.13,2.13,0,0,1,1.54-.59,2,2,0,0,1,1.64.79,3.3,3.3,0,0,1,.63,2.1,3.86,3.86,0,0,1-1.05,2.76,3.52,3.52,0,0,1-2.62,1.13l-.16-1.09,1.58.09a3.08,3.08,0,0,0,1.31-2.82,3.62,3.62,0,0,0-.35-1.67,1.13,1.13,0,0,0-1.05-.67,1.78,1.78,0,0,0-.44.06,1.26,1.26,0,0,0-.51.58,2,2,0,0,0-.18.83,1.53,1.53,0,0,0,.41,1.11,1.38,1.38,0,0,0,1.06.44,2.27,2.27,0,0,0,.53-.08Z" fill="#fff"/><path d="M305.15,410.08a1.68,1.68,0,0,0,.68-1.08l-.52-.4a1,1,0,0,1,.61-.8,1,1,0,0,1,.52.36,1,1,0,0,1,.19.59,1.66,1.66,0,0,1-.32.93,2.36,2.36,0,0,1-.87.78Z" fill="#fff"/><path d="M312.21,407.25v1.16l.83.11L313,409h-2.71l-.06-.34,1.11-.36v-1.05h-2.78l-.23-.57,3.13-4.38.77.1v4.13l1.15,0v.5l-.28.25Zm-.89-.7v-2.38l.12-.91-2.15,3.35Z" fill="#fff"/><path d="M314.82,405.84a4.25,4.25,0,0,1,.68-2.48,2.1,2.1,0,0,1,1.79-1,1.84,1.84,0,0,1,1.66.9,4.33,4.33,0,0,1,.56,2.3,4.5,4.5,0,0,1-.65,2.55,2,2,0,0,1-1.73,1,2,2,0,0,1-1.67-.9A4,4,0,0,1,314.82,405.84Zm1.74-2.72a2.3,2.3,0,0,0-.61,1.13,5.52,5.52,0,0,0-.21,1.45,3.91,3.91,0,0,0,.45,1.95,1.31,1.31,0,0,0,1.15.8,1.23,1.23,0,0,0,.42-.07,2.23,2.23,0,0,0,.62-1.14,6,6,0,0,0,.2-1.51,4,4,0,0,0-.4-1.9,1.26,1.26,0,0,0-1.16-.78A1.51,1.51,0,0,0,316.56,403.12Z" fill="#fff"/><path d="M237.42,404.81l.13-.28h3.55l.42.7-.12.28h-3.56Z" fill="#fff"/><path d="M250,406.59a2.41,2.41,0,0,1-.65,1.71,3.08,3.08,0,0,1-1.66.9V411h-.88v-1.75a6.26,6.26,0,0,1-1.6-.28,2.89,2.89,0,0,1-1.26-.69v-.49a10.65,10.65,0,0,1,.15-1.87h.76l.2,1.68a3.79,3.79,0,0,0,2.33.73l.48,0a1.5,1.5,0,0,0,.81-1.43,1.61,1.61,0,0,0-1-1.41l-2.27-1.18a2.48,2.48,0,0,1-1.41-2.16,2.16,2.16,0,0,1,.8-1.73,3.6,3.6,0,0,1,2-.77V398h.87v1.62a8.6,8.6,0,0,1,1.9.42l0,.49a10.81,10.81,0,0,1-.16,1.88h-.75l-.14-1.27a3.09,3.09,0,0,0-1.92-.62l-.65.06a1.39,1.39,0,0,0-.67,1.27,1.55,1.55,0,0,0,1,1.33l2.24,1.13A2.56,2.56,0,0,1,250,406.59Z" fill="#fff"/><polygon points="333.16 408.1 330.06 404.99 329 406.04 333.16 410.2 342.11 401.26 341.05 400.2 333.16 408.1" fill="#fff"/></g></svg>