<svg id="Ebene_1" xmlns="http://www.w3.org/2000/svg" viewBox="0 0 116.22 96.38"><title>ic_marker</title><path d="M70.87,118.35a.74.74,0,0,1-.55-.26l-6.87-8.25H14.17a.71.71,0,0,1-.71-.71v-85a.7.7,0,0,1,.71-.7H127.56a.7.7,0,0,1,.71.7v85a.71.71,0,0,1-.71.71H78.29l-6.88,8.25A.7.7,0,0,1,70.87,118.35Z" transform="translate(-12.76 -22.68)"/><path d="M127.56,24.09v85H78l-7.08,8.51-7.09-8.51H14.17v-85H127.56m0-1.41H14.17a1.41,1.41,0,0,0-1.41,1.41v85a1.41,1.41,0,0,0,1.41,1.42H63.12l6.66,8a1.43,1.43,0,0,0,1.09.51,1.4,1.4,0,0,0,1.08-.51l6.67-8h48.94a1.42,1.42,0,0,0,1.42-1.42v-85a1.42,1.42,0,0,0-1.42-1.41Z" transform="translate(-12.76 -22.68)"/></svg>